<?xml version="1.0" encoding="UTF-8" standalone="no"?>
<!DOCTYPE svg PUBLIC "-//W3C//DTD SVG 1.1//EN" "http://www.w3.org/Graphics/SVG/1.1/DTD/svg11.dtd">
<svg xmlns="http://www.w3.org/2000/svg" version="1.1" viewBox="0.00 0.00 447.00 249.00">
<g stroke-width="2.00" fill="none" stroke-linecap="butt">
<path stroke="#fcf4ef" vector-effect="non-scaling-stroke" d="
  M 444.31 249.00
  Q 446.26 243.87 446.27 235.00
  Q 446.45 76.79 446.23 15.98
  C 446.19 4.77 440.19 3.01 430.24 2.99
  Q 373.25 2.90 321.68 3.04
  C 319.28 3.05 316.82 3.45 314.45 3.82"
/>
<path stroke="#fcd8cf" vector-effect="non-scaling-stroke" d="
  M 314.45 3.82
  Q 313.52 3.10 312.93 3.09
  Q 302.08 2.80 281.97 3.09"
/>
<path stroke="#a99494" vector-effect="non-scaling-stroke" d="
  M 281.97 3.09
  L 272.89 3.07"
/>
<path stroke="#9a8c8d" vector-effect="non-scaling-stroke" d="
  M 272.89 3.07
  L 260.33 3.16"
/>
<path stroke="#fcd0c3" vector-effect="non-scaling-stroke" d="
  M 260.33 3.16
  L 236.73 3.08"
/>
<path stroke="#a99494" vector-effect="non-scaling-stroke" d="
  M 236.73 3.08
  L 227.62 3.09"
/>
<path stroke="#bb9f9a" vector-effect="non-scaling-stroke" d="
  M 227.62 3.09
  L 225.61 3.03"
/>
<path stroke="#a99494" vector-effect="non-scaling-stroke" d="
  M 225.61 3.03
  L 164.38 3.04"
/>
<path stroke="#fcd8cf" vector-effect="non-scaling-stroke" d="
  M 164.38 3.04
  L 115.74 3.41"
/>
<path stroke="#fcf4ef" vector-effect="non-scaling-stroke" d="
  M 115.74 3.41
  Q 112.41 3.61 109.39 3.40
  Q 104.15 3.05 103.07 3.05
  Q 34.96 2.86 14.82 3.06
  C 5.47 3.15 1.16 7.14 1.15 16.80
  Q 1.04 200.52 1.16 239.93
  Q 1.17 244.41 3.51 249.00"
/>
<path stroke="#fcd5c4" vector-effect="non-scaling-stroke" d="
  M 115.74 3.41
  Q 104.90 16.95 99.77 31.02
  Q 93.42 48.43 91.92 67.21
  Q 90.76 81.65 89.64 96.24
  C 88.09 116.53 84.14 131.49 78.69 154.69
  Q 76.00 166.13 75.12 175.33
  Q 73.78 189.29 76.77 205.41
  Q 78.23 213.32 81.23 220.26
  Q 85.49 230.10 88.73 234.18
  Q 89.14 234.68 89.34 234.86
  A 0.62 0.62 0.0 0 0 90.36 234.52
  Q 94.76 212.66 101.66 191.15
  Q 104.36 182.73 109.70 169.87
  A 4.09 3.78 -18.3 0 1 110.17 169.02
  L 114.03 163.56"
/>
<path stroke="#9a8882" vector-effect="non-scaling-stroke" d="
  M 114.03 163.56
  L 114.77 162.36"
/>
<path stroke="#fcd5c4" vector-effect="non-scaling-stroke" d="
  M 114.77 162.36
  L 117.89 159.82"
/>
<path stroke="#a99089" vector-effect="non-scaling-stroke" d="
  M 117.89 159.82
  Q 121.33 158.26 124.69 156.38
  Q 129.16 153.89 131.42 152.81
  Q 142.78 147.36 154.21 142.06"
/>
<path stroke="#9a8882" vector-effect="non-scaling-stroke" d="
  M 154.21 142.06
  Q 157.27 140.18 160.10 139.62"
/>
<path stroke="#8b8e8c" vector-effect="non-scaling-stroke" d="
  M 160.10 139.62
  C 154.83 148.21 153.81 156.47 152.95 166.55
  A 2.94 2.93 73.9 0 1 151.79 168.65
  C 146.90 172.34 143.42 175.08 141.71 181.45
  Q 138.74 192.53 142.47 202.82"
/>
<path stroke="#d6cec4" vector-effect="non-scaling-stroke" d="
  M 142.47 202.82
  Q 144.41 218.52 148.86 233.76
  C 150.39 239.02 152.75 243.96 155.05 249.00"
/>
<path stroke="#fcd5c4" vector-effect="non-scaling-stroke" d="
  M 138.21 249.00
  Q 139.29 248.97 138.93 246.97
  Q 138.55 244.86 138.52 244.53
  Q 137.16 230.43 134.63 210.88
  C 132.97 198.11 130.12 189.66 125.19 175.80
  Q 124.80 174.70 121.21 169.14
  A 0.26 0.26 0.0 0 0 120.85 169.06
  L 120.84 169.06
  A 0.26 0.26 0.0 0 0 120.75 169.40
  C 126.00 179.16 128.52 188.20 131.18 199.12
  Q 132.91 206.20 134.02 217.55
  Q 135.54 233.25 136.47 249.00"
/>
<path stroke="#a97568" vector-effect="non-scaling-stroke" d="
  M 164.38 3.04
  L 161.35 9.74"
/>
<path stroke="#bb806f" vector-effect="non-scaling-stroke" d="
  M 161.35 9.74
  Q 159.25 13.10 158.83 14.35
  C 154.32 27.81 150.16 39.46 136.55 46.01
  A 0.34 0.33 64.6 0 0 136.40 46.45
  L 136.40 46.46
  A 0.34 0.33 -23.0 0 0 136.83 46.63
  Q 143.54 43.81 148.84 38.02
  C 153.70 32.70 157.00 23.81 159.13 16.86
  A 0.50 0.50 0.0 0 1 159.98 16.67
  Q 160.25 16.98 160.04 17.57"
/>
<path stroke="#a97568" vector-effect="non-scaling-stroke" d="
  M 160.04 17.57
  C 157.85 26.19 154.14 36.23 147.58 42.59
  C 139.15 50.75 124.66 57.47 123.52 71.15
  Q 122.96 77.88 124.62 82.65
  Q 126.13 86.99 129.49 96.00
  Q 131.54 101.50 130.79 108.03"
/>
<path stroke="#9a6d62" vector-effect="non-scaling-stroke" d="
  M 130.79 108.03
  Q 129.68 112.43 127.47 116.29
  Q 125.97 118.91 121.74 123.07
  Q 116.95 127.77 113.58 132.37
  Q 102.47 147.58 114.03 163.56"
/>
<path stroke="#bb806f" vector-effect="non-scaling-stroke" d="
  M 124.47 114.18
  Q 126.43 112.38 126.82 108.87
  C 127.57 102.06 125.52 98.21 122.54 91.24
  Q 117.86 80.32 122.50 69.40
  A 0.07 0.06 -70.2 0 0 122.47 69.32
  L 122.23 69.22
  A 0.20 0.19 24.4 0 0 121.98 69.31
  Q 117.64 78.56 120.13 87.87
  C 121.20 91.88 123.86 96.73 124.93 100.55
  Q 126.79 107.24 124.07 113.91
  A 0.25 0.25 0.0 0 0 124.47 114.18"
/>
<path stroke="#673c34" vector-effect="non-scaling-stroke" d="
  M 225.61 3.03
  Q 220.01 13.72 214.46 18.71
  Q 209.39 23.27 206.80 25.76
  Q 204.14 28.32 195.18 32.63
  Q 191.48 34.41 182.07 37.99
  C 177.78 39.63 175.07 41.22 170.85 43.42
  A 0.34 0.33 63.1 0 0 170.71 43.87
  L 170.75 43.96
  A 0.35 0.35 0.0 0 0 171.22 44.11
  C 173.51 42.97 175.76 41.53 178.19 40.62
  Q 188.12 36.90 188.72 36.70
  Q 195.29 34.47 199.03 32.27
  Q 207.86 27.05 211.63 24.09
  Q 216.82 20.00 223.10 10.35
  A 7.37 7.01 -8.0 0 1 223.79 9.48
  Q 225.41 7.77 227.69 5.52
  Q 228.45 4.78 227.62 3.09"
/>
<path stroke="#a86c5c" vector-effect="non-scaling-stroke" d="
  M 236.73 3.08
  L 235.70 4.03"
/>
<path stroke="#a1574b" vector-effect="non-scaling-stroke" d="
  M 235.70 4.03
  Q 232.42 5.94 230.16 9.39"
/>
<path stroke="#a86c5c" vector-effect="non-scaling-stroke" d="
  M 230.16 9.39
  L 226.58 15.80"
/>
<path stroke="#a1574b" vector-effect="non-scaling-stroke" d="
  M 226.58 15.80
  C 222.16 23.85 217.64 28.56 212.29 34.68
  A 2.78 2.07 -79.9 0 1 211.95 35.00
  L 202.61 42.54"
/>
<path stroke="#462827" vector-effect="non-scaling-stroke" d="
  M 202.61 42.54
  Q 199.82 42.90 198.91 43.70
  Q 196.52 45.79 194.00 47.75
  A 1.09 1.08 -17.5 0 0 193.59 48.53
  L 193.43 51.28"
/>
<path stroke="#a86c5c" vector-effect="non-scaling-stroke" d="
  M 193.43 51.28
  Q 193.31 49.30 192.08 49.57
  A 0.71 0.68 16.8 0 0 191.75 49.74
  Q 186.23 54.79 183.27 62.11"
/>
<path stroke="#462827" vector-effect="non-scaling-stroke" d="
  M 183.27 62.11
  Q 180.74 66.26 180.59 71.63
  Q 180.36 79.91 180.10 88.07
  Q 179.57 104.28 168.44 114.67
  Q 164.02 118.81 161.84 120.76
  Q 157.46 124.68 156.14 126.70
  C 153.24 131.16 150.54 137.29 154.21 142.06"
/>
<path stroke="#a97568" vector-effect="non-scaling-stroke" d="
  M 117.89 159.82
  C 114.68 152.90 112.91 146.03 115.42 138.82"
/>
<path stroke="#462827" vector-effect="non-scaling-stroke" d="
  M 115.42 138.82
  C 119.44 134.06 121.74 128.44 126.32 124.32
  A 0.42 0.42 0.0 0 1 126.99 124.79
  L 122.83 134.56
  A 0.04 0.03 38.0 0 0 122.84 134.60
  L 123.33 135.17
  A 0.30 0.29 19.4 0 0 123.69 135.00
  Q 126.81 127.59 129.58 123.79
  Q 135.93 115.10 139.39 110.58
  C 146.93 100.72 142.39 92.00 138.68 81.70
  A 0.36 0.35 -17.6 0 0 138.25 81.48
  L 138.13 81.52
  A 0.36 0.36 0.0 0 0 137.88 81.93
  Q 138.97 87.26 141.26 93.65
  C 143.73 100.56 141.35 106.29 136.82 111.41
  A 0.70 0.70 0.0 0 1 135.61 111.11
  L 134.23 105.46"
/>
<path stroke="#a97568" vector-effect="non-scaling-stroke" d="
  M 134.23 105.46
  L 132.83 100.26
  A 0.23 0.23 0.0 0 0 132.38 100.31
  L 132.12 108.33"
/>
<path stroke="#462827" vector-effect="non-scaling-stroke" d="
  M 132.12 108.33
  L 131.89 103.86
  A 0.19 0.19 0.0 0 0 131.60 103.71
  L 131.22 103.97
  A 0.24 0.23 -19.7 0 0 131.11 104.20
  Q 131.38 106.23 130.79 108.03"
/>
<path stroke="#673c34" vector-effect="non-scaling-stroke" d="
  M 160.04 17.57
  Q 162.56 12.95 161.35 9.74"
/>
<path stroke="#673c34" vector-effect="non-scaling-stroke" d="
  M 163.39 70.84
  A 0.29 0.29 0.0 0 0 163.71 70.61
  C 165.55 61.03 170.92 51.86 180.36 48.56
  Q 183.65 47.41 195.34 43.58
  A 0.31 0.31 0.0 0 0 195.19 42.98
  C 178.37 45.59 163.65 50.90 163.20 70.69
  A 0.15 0.15 0.0 0 0 163.33 70.84
  L 163.39 70.84"
/>
<path stroke="#673c34" vector-effect="non-scaling-stroke" d="
  M 139.05 138.89
  C 141.16 131.53 144.14 126.77 149.84 122.02
  Q 151.98 120.24 155.85 117.34
  C 166.97 109.01 173.73 96.93 172.24 82.74
  C 171.39 74.74 170.34 65.99 173.73 58.05
  Q 174.20 56.94 177.00 53.47
  A 0.23 0.23 0.0 0 0 176.98 53.15
  L 176.97 53.15
  A 0.22 0.21 42.1 0 0 176.67 53.16
  C 167.81 62.64 169.79 71.85 170.56 85.50
  C 171.22 97.08 165.99 106.38 157.32 114.07
  C 154.20 116.83 149.00 120.08 145.82 123.94
  C 142.06 128.51 138.95 132.46 138.64 138.83
  A 0.21 0.21 0.0 0 0 139.05 138.89"
/>
<path stroke="#996456" vector-effect="non-scaling-stroke" d="
  M 260.33 3.16
  Q 264.85 6.30 266.68 9.33
  Q 270.15 15.04 271.63 23.54
  Q 272.70 29.70 273.15 31.43
  A 0.51 0.51 0.0 0 1 272.58 32.06
  Q 267.88 31.34 262.70 32.85
  A 3.82 3.80 4.9 0 0 260.34 34.83
  L 259.75 36.04
  A 1.49 1.49 0.0 0 0 261.46 38.14
  C 266.31 36.92 269.58 35.69 272.87 36.05
  A 0.86 0.86 0.0 0 1 273.63 37.01
  Q 272.53 46.02 269.56 43.25"
/>
<path stroke="#f4937a" vector-effect="non-scaling-stroke" d="
  M 269.56 43.25
  Q 266.19 40.85 262.75 40.93
  C 258.44 41.03 256.59 44.24 256.62 48.40
  Q 256.68 57.10 261.60 63.99
  A 4.00 3.50 46.9 0 1 261.75 68.46
  Q 261.06 69.38 259.36 70.50
  A 1.90 1.86 25.0 0 1 258.45 70.82
  Q 257.46 70.90 256.58 70.42
  C 254.27 69.16 251.38 69.20 249.45 70.82
  A 1.65 1.65 0.0 0 1 246.80 69.99
  L 246.17 67.63
  A 0.65 0.65 0.0 0 0 244.91 67.64
  Q 243.80 72.23 248.17 73.12
  Q 253.63 74.22 259.09 72.62
  Q 260.63 72.17 263.33 69.20
  A 1.68 1.64 -22.5 0 0 263.76 68.20
  Q 263.95 65.25 263.22 64.05
  C 260.67 59.84 257.76 55.04 257.34 50.23"
/>
<path stroke="#996456" vector-effect="non-scaling-stroke" d="
  M 257.34 50.23
  Q 257.95 49.50 258.05 49.09"
/>
<path stroke="#fcd0c3" vector-effect="non-scaling-stroke" d="
  M 258.05 49.09
  Q 262.53 51.24 262.13 48.95"
/>
<path stroke="#996456" vector-effect="non-scaling-stroke" d="
  M 262.13 48.95
  Q 263.19 50.52 265.11 50.02
  Q 266.28 49.72 266.61 49.06"
/>
<path stroke="#fcccb8" vector-effect="non-scaling-stroke" d="
  M 266.61 49.06
  Q 268.21 50.55 270.05 46.66"
/>
<path stroke="#996456" vector-effect="non-scaling-stroke" d="
  M 270.05 46.66
  Q 270.39 46.85 270.79 47.32
  A 1.42 1.41 27.2 0 1 271.12 48.33
  Q 270.96 50.89 271.34 52.30
  Q 273.86 61.60 272.46 68.02
  C 270.20 78.36 263.76 90.11 258.40 101.14
  C 254.77 108.62 248.21 110.13 240.74 108.17"
/>
<path stroke="#f4937a" vector-effect="non-scaling-stroke" d="
  M 240.74 108.17
  Q 227.58 103.34 222.78 99.97
  C 215.23 94.68 206.69 90.39 201.72 81.55
  Q 199.79 78.13 197.34 70.45
  A 1.00 0.99 89.4 0 0 196.68 69.80
  Q 195.43 69.42 194.88 70.52"
/>
<path stroke="#996456" vector-effect="non-scaling-stroke" d="
  M 194.88 70.52
  Q 192.00 72.84 189.65 71.39
  A 1.24 1.19 -85.8 0 1 189.16 70.80
  L 188.61 69.37
  A 1.37 1.36 1.8 0 0 187.91 68.63
  Q 183.68 66.68 183.27 62.11"
/>
<path stroke="#996456" vector-effect="non-scaling-stroke" d="
  M 193.43 51.28
  Q 195.11 57.23 197.41 63.06
  Q 197.68 63.74 199.31 65.67
  A 0.14 0.14 0.0 0 0 199.55 65.56
  L 198.98 62.21"
/>
<path stroke="#f4937a" vector-effect="non-scaling-stroke" d="
  M 198.98 62.21
  Q 198.63 51.18 204.41 43.67
  Q 206.09 41.47 211.96 37.71
  A 3.95 3.70 0.2 0 0 212.96 36.78
  C 214.50 34.71 216.65 33.41 218.48 31.54
  Q 219.66 30.33 225.40 23.62
  A 0.78 0.69 -14.9 0 0 225.50 23.47
  L 231.83 10.56
  A 3.68 3.41 -13.7 0 1 232.30 9.85
  Q 234.56 7.23 235.70 4.03"
/>
<path stroke="#996456" vector-effect="non-scaling-stroke" d="
  M 216.68 36.29
  A 0.31 0.31 0.0 0 0 217.04 36.79
  C 226.66 31.98 234.02 35.04 243.68 37.78
  A 3.14 3.14 0.0 0 0 247.48 35.85
  L 247.52 35.74
  A 2.80 2.80 0.0 0 0 245.62 32.06
  Q 239.56 30.45 232.93 30.00
  Q 223.69 29.39 216.68 36.29"
/>
<path stroke="#996456" vector-effect="non-scaling-stroke" d="
  M 220.00 45.51
  Q 220.20 46.69 222.66 47.25"
/>
<path stroke="#ee7c69" vector-effect="non-scaling-stroke" d="
  M 222.66 47.25
  L 228.16 50.85
  A 0.94 0.85 -57.4 0 0 229.39 50.51
  Q 229.43 50.44 229.31 49.68"
/>
<path stroke="#fcccb8" vector-effect="non-scaling-stroke" d="
  M 229.31 49.68
  Q 230.39 50.28 230.65 49.39"
/>
<path stroke="#996456" vector-effect="non-scaling-stroke" d="
  M 230.65 49.39
  Q 233.30 51.08 235.22 49.66"
/>
<path stroke="#fcd0c3" vector-effect="non-scaling-stroke" d="
  M 235.22 49.66
  Q 238.59 50.46 240.54 48.65"
/>
<path stroke="#996456" vector-effect="non-scaling-stroke" d="
  M 240.54 48.65
  Q 240.77 48.92 241.27 49.13
  A 0.36 0.36 0.0 0 0 241.74 48.66
  Q 240.39 45.26 237.99 43.42
  Q 236.62 42.37 233.51 42.19
  Q 231.29 42.06 228.77 42.01"
/>
<path stroke="#ee7c69" vector-effect="non-scaling-stroke" d="
  M 228.77 42.01
  Q 232.41 40.08 237.32 41.85
  A 0.64 0.59 -80.2 0 0 238.11 41.24
  Q 238.12 41.08 237.88 40.87
  Q 237.64 40.67 237.51 40.63
  Q 229.96 38.29 222.26 42.79
  Q 220.38 43.88 220.00 45.51"
/>
<path stroke="#8c3834" vector-effect="non-scaling-stroke" d="
  M 228.77 42.01
  Q 224.93 44.35 220.00 45.51"
/>
<path stroke="#9a8c8d" vector-effect="non-scaling-stroke" d="
  M 240.54 48.65
  Q 239.15 46.51 237.71 45.41
  A 0.29 0.29 0.0 0 0 237.24 45.63
  Q 237.16 47.74 235.22 49.66"
/>
<path stroke="#9a8882" vector-effect="non-scaling-stroke" d="
  M 230.65 49.39
  Q 229.21 47.51 229.46 45.09
  A 0.34 0.34 0.0 0 0 228.97 44.74
  L 224.98 46.66"
/>
<path stroke="#8c3834" vector-effect="non-scaling-stroke" d="
  M 224.98 46.66
  L 222.66 47.25"
/>
<path stroke="#efa096" vector-effect="non-scaling-stroke" d="
  M 229.31 49.68
  Q 226.07 48.55 224.98 46.66"
/>
<path stroke="#ba7863" vector-effect="non-scaling-stroke" d="
  M 189.70 68.28
  Q 189.37 68.28 189.24 68.50
  Q 189.09 68.75 189.23 68.95
  Q 189.72 69.67 190.28 69.98
  Q 190.80 70.25 190.97 69.74
  Q 191.07 69.44 190.74 69.01"
/>
<path stroke="#fcb197" vector-effect="non-scaling-stroke" d="
  M 190.74 69.01
  Q 191.59 69.30 192.34 69.29
  Q 193.23 69.29 193.35 68.66
  Q 193.45 68.14 193.00 67.39"
/>
<path stroke="#996456" vector-effect="non-scaling-stroke" d="
  M 193.00 67.39
  Q 194.15 67.22 193.85 66.12
  Q 193.58 65.10 192.51 65.21"
/>
<path stroke="#fcb197" vector-effect="non-scaling-stroke" d="
  M 192.51 65.21
  Q 192.43 63.99 192.77 62.66
  Q 192.99 61.78 192.43 61.45
  A 0.86 0.84 -75.0 0 0 191.16 62.20
  Q 191.13 64.77 189.64 66.61
  Q 189.35 66.98 189.43 67.44
  Q 189.50 67.86 189.70 68.28"
/>
<path stroke="#9a6d62" vector-effect="non-scaling-stroke" d="
  M 192.51 65.21
  Q 191.77 66.83 193.00 67.39"
/>
<path stroke="#bb806f" vector-effect="non-scaling-stroke" d="
  M 190.74 69.01
  L 189.70 68.28"
/>
<path stroke="#ee7c69" vector-effect="non-scaling-stroke" d="
  M 237.30 82.91
  A 0.52 0.52 0.0 0 0 236.78 83.79
  Q 240.49 87.16 243.49 89.76
  Q 248.00 93.68 253.88 92.63
  C 257.36 92.01 259.18 90.34 259.97 86.97
  Q 260.46 84.89 261.71 83.60
  A 0.91 0.90 54.5 0 0 261.88 82.58
  C 260.17 78.97 258.03 79.29 253.99 79.35
  Q 250.58 79.40 249.55 79.82
  C 244.63 81.87 241.00 84.19 237.30 82.91"
/>
<path stroke="#462827" vector-effect="non-scaling-stroke" d="
  M 272.89 3.07
  Q 273.81 5.43 274.92 7.71
  Q 276.44 10.82 276.73 12.37
  Q 277.62 17.12 278.34 21.61
  Q 278.75 24.15 278.34 30.91
  Q 277.60 43.26 277.71 54.29
  Q 277.82 64.82 281.28 77.99
  C 282.87 84.06 286.28 90.07 288.89 96.36
  Q 291.39 102.38 291.06 107.36
  C 290.56 114.80 287.33 119.11 281.42 124.58
  Q 277.64 128.06 273.81 132.24
  A 0.53 0.52 34.2 0 1 273.20 132.35
  L 272.92 132.21
  A 0.55 0.54 33.2 0 1 272.74 131.37
  C 280.61 122.09 292.29 116.60 287.84 103.03
  Q 286.75 99.71 281.30 93.01
  Q 276.62 87.25 272.54 80.04
  A 0.50 0.50 0.0 0 0 271.62 80.16
  C 270.37 85.29 270.45 89.48 272.31 94.69
  C 275.35 103.22 275.81 109.84 270.25 117.85
  C 266.82 122.79 262.26 129.79 265.70 136.06"
/>
<path stroke="#29262a" vector-effect="non-scaling-stroke" d="
  M 265.70 136.06
  C 262.11 132.36 258.62 129.43 253.84 127.46"
/>
<path stroke="#9a8882" vector-effect="non-scaling-stroke" d="
  M 253.84 127.46
  Q 248.29 122.60 241.71 119.65"
/>
<path stroke="#996456" vector-effect="non-scaling-stroke" d="
  M 241.71 119.65
  Q 240.88 119.00 240.88 118.27
  Q 240.92 114.32 240.43 111.32"
/>
<path stroke="#924f45" vector-effect="non-scaling-stroke" d="
  M 240.43 111.32
  L 240.74 108.17"
/>
<path stroke="#9a8882" vector-effect="non-scaling-stroke" d="
  M 270.05 46.66
  Q 268.37 45.12 267.54 45.95
  A 0.35 0.30 -19.4 0 0 267.45 46.11
  L 266.61 49.06"
/>
<path stroke="#9a8c8d" vector-effect="non-scaling-stroke" d="
  M 262.13 48.95
  Q 261.64 47.55 261.02 46.79
  A 0.50 0.49 -42.5 0 0 260.28 46.76
  L 258.05 49.09"
/>
<path stroke="#924f45" vector-effect="non-scaling-stroke" d="
  M 257.34 50.23
  Q 257.04 49.95 257.08 49.30
  A 1.59 1.57 65.7 0 1 257.40 48.44
  C 260.78 44.05 263.53 42.24 269.56 43.25"
/>
<path stroke="#a97568" vector-effect="non-scaling-stroke" d="
  M 281.97 3.09
  L 283.83 8.16"
/>
<path stroke="#462827" vector-effect="non-scaling-stroke" d="
  M 283.83 8.16
  Q 282.92 8.46 282.43 9.00"
/>
<path stroke="#673c34" vector-effect="non-scaling-stroke" d="
  M 282.43 9.00
  Q 281.37 6.26 279.70 4.29
  A 0.60 0.60 0.0 0 0 278.71 4.96
  Q 284.90 16.62 284.01 29.97
  A 0.61 0.61 0.0 0 0 285.06 30.43
  Q 285.65 29.82 285.79 28.44"
/>
<path stroke="#462827" vector-effect="non-scaling-stroke" d="
  M 285.79 28.44
  Q 285.56 40.07 287.19 51.16"
/>
<path stroke="#9b403a" vector-effect="non-scaling-stroke" d="
  M 287.19 51.16
  Q 287.00 54.22 289.29 57.54"
/>
<path stroke="#a97568" vector-effect="non-scaling-stroke" d="
  M 289.29 57.54
  C 290.91 64.06 295.12 69.09 299.83 75.14
  Q 309.84 87.99 310.79 104.24
  Q 311.21 111.40 309.28 117.03
  C 307.21 123.04 302.94 127.91 298.39 132.39
  Q 294.48 136.22 292.27 140.97
  A 2.84 2.69 -32.2 0 0 292.01 141.99
  L 291.80 145.88"
/>
<path stroke="#a99089" vector-effect="non-scaling-stroke" d="
  M 291.80 145.88
  L 265.87 136.29"
/>
<path stroke="#382e30" vector-effect="non-scaling-stroke" d="
  M 265.87 136.29
  Q 265.78 136.18 265.70 136.06"
/>
<path stroke="#462827" vector-effect="non-scaling-stroke" d="
  M 283.23 27.06
  C 282.56 29.61 282.65 33.68 282.59 37.46
  Q 282.57 39.17 281.78 46.62
  C 279.98 63.69 283.86 77.23 296.13 90.02
  A 0.37 0.36 43.5 0 0 296.67 90.01
  L 296.88 89.76
  A 0.18 0.18 0.0 0 0 296.89 89.54
  Q 295.60 87.67 291.84 82.56
  C 286.30 75.03 283.75 67.13 282.51 57.61
  C 281.32 48.50 284.26 34.79 283.71 27.11
  A 0.25 0.24 50.5 0 0 283.23 27.06"
/>
<path stroke="#a97568" vector-effect="non-scaling-stroke" d="
  M 291.94 139.83
  Q 293.28 136.20 297.11 132.08
  C 301.27 127.60 304.68 124.25 307.04 119.25
  Q 309.82 113.35 309.97 106.57
  A 0.23 0.23 0.0 0 0 309.52 106.52
  Q 307.55 115.30 301.61 121.59
  C 298.16 125.24 293.41 130.83 292.24 133.77
  Q 291.15 136.51 291.24 139.72
  A 0.36 0.36 0.0 0 0 291.94 139.83"
/>
<path stroke="#fcd5c4" vector-effect="non-scaling-stroke" d="
  M 314.45 3.82
  Q 314.58 4.19 314.83 4.40
  Q 340.26 25.54 351.06 56.21
  Q 361.05 84.57 360.03 114.53
  C 359.36 134.12 356.01 152.72 351.19 171.50
  Q 344.26 198.53 331.80 223.07
  A 0.43 0.43 0.0 0 1 330.99 222.96
  Q 326.85 203.06 321.03 180.82
  C 319.27 174.10 317.28 168.56 314.65 163.08
  Q 311.45 156.43 304.81 152.46
  Q 298.49 148.67 291.80 145.88"
/>
<path stroke="#ef8475" vector-effect="non-scaling-stroke" d="
  M 289.29 57.54
  L 289.69 57.25"
/>
<path stroke="#9a6d62" vector-effect="non-scaling-stroke" d="
  M 289.69 57.25
  Q 293.75 64.31 301.37 67.21
  A 0.19 0.19 0.0 0 0 301.61 67.11
  L 301.61 67.10
  A 0.17 0.16 -64.3 0 0 301.54 66.88
  C 285.45 58.92 287.23 44.51 287.66 29.00
  Q 287.92 19.61 283.83 8.16"
/>
<path stroke="#fcd5c4" vector-effect="non-scaling-stroke" d="
  M 301.85 249.00
  Q 302.50 234.30 303.41 219.60
  C 304.44 203.04 306.99 187.86 308.59 172.40
  Q 308.82 170.13 308.90 168.06
  A 0.27 0.27 0.0 0 0 308.65 167.79
  L 308.59 167.78
  A 0.18 0.18 0.0 0 0 308.40 167.94
  Q 303.59 196.12 300.83 224.16
  A 0.66 0.65 1.0 0 1 300.21 224.75
  Q 295.09 224.95 291.18 226.19
  A 0.27 0.26 -56.2 0 0 291.28 226.71
  L 300.61 225.81
  A 0.35 0.34 -1.4 0 1 300.99 226.17
  L 299.81 249.00"
/>
<path stroke="#d6cec4" vector-effect="non-scaling-stroke" d="
  M 289.33 249.00
  Q 301.62 236.73 286.64 227.60
  A 2.19 2.18 -62.3 0 1 285.79 224.83
  Q 286.43 223.43 286.12 222.74"
/>
<path stroke="#8b8e8c" vector-effect="non-scaling-stroke" d="
  M 286.12 222.74
  Q 287.35 201.46 284.35 180.54
  Q 281.45 160.27 271.17 143.58
  Q 269.32 140.58 266.17 137.23
  Q 265.98 137.02 265.92 136.79
  Q 265.86 136.53 265.87 136.29"
/>
<path stroke="#924f45" vector-effect="non-scaling-stroke" d="
  M 198.98 62.21
  Q 197.60 57.90 198.19 54.87
  Q 199.09 50.21 202.61 42.54"
/>
<path stroke="#f4937a" vector-effect="non-scaling-stroke" d="
  M 226.58 15.80
  Q 226.45 16.22 226.57 16.50
  A 0.41 0.41 0.0 0 0 227.30 16.55
  Q 229.17 13.42 230.76 10.12
  Q 230.96 9.71 230.65 9.42
  Q 230.49 9.27 230.16 9.39"
/>
<path stroke="#58342d" vector-effect="non-scaling-stroke" d="
  M 282.43 9.00
  Q 286.05 18.36 285.79 28.44"
/>
<path stroke="#8c3834" vector-effect="non-scaling-stroke" d="
  M 289.69 57.25
  L 287.19 51.16"
/>
<path stroke="#924f45" vector-effect="non-scaling-stroke" d="
  M 194.88 70.52
  Q 196.24 78.28 196.77 85.75
  Q 197.79 99.98 193.62 113.58
  Q 193.28 114.65 191.79 115.59"
/>
<path stroke="#9a8882" vector-effect="non-scaling-stroke" d="
  M 191.79 115.59
  Q 185.05 119.35 179.37 124.61"
/>
<path stroke="#29262a" vector-effect="non-scaling-stroke" d="
  M 179.37 124.61
  Q 175.61 125.75 172.49 127.98
  Q 165.18 133.20 160.10 139.62"
/>
<path stroke="#f4937a" vector-effect="non-scaling-stroke" d="
  M 240.43 111.32
  Q 238.20 115.23 235.93 118.71
  Q 233.03 123.16 230.92 124.13
  C 226.45 126.17 221.58 122.77 218.58 119.68
  Q 216.07 117.08 208.04 108.02
  Q 206.32 106.09 204.12 105.23
  A 2.12 2.12 0.0 0 0 201.47 106.22
  C 200.47 108.10 200.59 110.79 199.88 112.65
  Q 199.12 114.68 198.45 117.82
  Q 198.40 118.05 196.66 122.86
  Q 193.97 130.28 195.30 138.49
  A 2.62 2.61 0.0 0 0 197.47 140.65
  C 206.01 142.02 214.69 144.25 220.89 150.76
  A 0.25 0.25 0.0 0 1 220.89 151.11
  A 0.26 0.26 0.0 0 1 220.53 151.13
  Q 215.68 146.98 209.66 144.83
  Q 203.06 142.46 195.88 142.03"
/>
<path stroke="#b2958b" vector-effect="non-scaling-stroke" d="
  M 195.88 142.03
  Q 191.56 136.54 189.74 134.51
  Q 188.63 133.27 185.90 131.49"
/>
<path stroke="#f5b7a7" vector-effect="non-scaling-stroke" d="
  M 185.90 131.49
  Q 185.45 128.37 186.64 126.13
  Q 188.52 122.59 191.78 117.86
  Q 193.16 115.87 191.79 115.59"
/>
<path stroke="#9a6d62" vector-effect="non-scaling-stroke" d="
  M 115.42 138.82
  Q 117.94 129.68 123.11 124.62
  Q 127.15 120.65 131.08 116.59
  C 134.32 113.25 134.49 110.21 134.23 105.46"
/>
<path stroke="#9a6d62" vector-effect="non-scaling-stroke" d="
  M 114.77 162.36
  Q 104.81 148.89 113.62 134.86
  Q 116.15 130.82 118.80 128.05
  C 125.07 121.50 130.23 116.67 132.12 108.33"
/>
<path stroke="#fcccb8" vector-effect="non-scaling-stroke" d="
  M 241.71 119.65
  Q 241.04 119.85 241.36 120.77
  C 242.96 125.47 246.53 128.95 247.61 134.31"
/>
<path stroke="#a99c8c" vector-effect="non-scaling-stroke" d="
  M 247.61 134.31
  L 246.78 137.19"
/>
<path stroke="#b9aa9c" vector-effect="non-scaling-stroke" d="
  M 246.78 137.19
  Q 244.53 140.02 243.15 143.26
  C 238.59 153.99 232.70 164.27 226.59 174.35
  Q 226.56 174.39 225.08 177.43
  A 0.39 0.38 -51.1 0 1 224.43 177.50
  L 195.88 142.03"
/>
<path stroke="#bacec8" vector-effect="non-scaling-stroke" d="
  M 185.90 131.49
  Q 186.31 143.90 189.00 156.06"
/>
<path stroke="#aac0b9" vector-effect="non-scaling-stroke" d="
  M 189.00 156.06
  L 189.33 158.09"
/>
<path stroke="#bacec8" vector-effect="non-scaling-stroke" d="
  M 189.33 158.09
  Q 194.82 181.53 201.04 204.55
  C 203.16 212.42 204.79 220.32 206.58 228.22
  Q 208.05 234.73 208.84 249.00"
/>
<path stroke="#d6cec4" vector-effect="non-scaling-stroke" d="
  M 172.50 249.00
  Q 176.00 236.24 176.83 229.00
  Q 177.72 221.29 178.22 198.79"
/>
<path stroke="#8b8e8c" vector-effect="non-scaling-stroke" d="
  M 178.22 198.79
  Q 180.58 188.11 175.71 177.71
  Q 173.01 171.95 167.67 169.34
  Q 164.03 167.56 160.22 166.28
  A 1.37 1.37 0.0 0 1 159.31 165.22
  Q 158.15 158.61 159.41 152.63
  C 160.19 148.91 161.90 146.37 164.26 141.75
  Q 166.46 137.46 171.08 134.07
  A 4.63 4.44 -3.5 0 0 172.26 132.79
  Q 175.12 128.08 179.37 124.61"
/>
<path stroke="#d6cec4" vector-effect="non-scaling-stroke" d="
  M 182.17 248.94
  L 182.88 248.74
  A 0.20 0.20 0.0 0 0 183.02 248.49
  L 179.65 236.33
  A 6.00 0.51 74.5 0 0 177.55 230.69
  L 177.44 230.72
  A 6.00 0.51 74.5 0 0 178.55 236.64
  L 181.92 248.80
  A 0.20 0.20 0.0 0 0 182.17 248.94"
/>
<path stroke="#8b8e8c" vector-effect="non-scaling-stroke" d="
  M 253.84 127.46
  Q 264.18 139.48 271.38 153.80
  Q 275.76 162.49 277.00 167.49
  C 278.82 174.86 280.55 183.76 281.15 192.77
  Q 282.20 208.49 281.45 224.09"
/>
<path stroke="#d6cec4" vector-effect="non-scaling-stroke" d="
  M 281.45 224.09
  Q 282.45 225.06 282.02 226.05
  Q 281.68 226.84 280.30 227.16
  Q 274.16 228.59 271.63 234.73
  Q 270.87 236.57 271.33 240.38
  Q 272.05 246.48 276.99 249.00"
/>
<path stroke="#aac0b9" vector-effect="non-scaling-stroke" d="
  M 251.54 249.00
  Q 254.98 204.24 252.00 159.50
  Q 251.53 152.36 248.87 138.22
  Q 248.70 137.36 247.61 134.31"
/>
<path stroke="#656c6c" vector-effect="non-scaling-stroke" d="
  M 178.22 198.79
  L 174.72 199.16"
/>
<path stroke="#8b8e8c" vector-effect="non-scaling-stroke" d="
  M 174.72 199.16
  L 172.83 182.87
  A 3.07 2.96 32.7 0 0 172.65 182.11
  C 170.27 175.86 164.79 171.60 157.80 172.70
  C 151.87 173.63 147.48 177.89 145.92 183.35
  Q 145.39 185.20 145.80 191.71
  Q 146.15 197.24 145.43 202.52"
/>
<path stroke="#656c6c" vector-effect="non-scaling-stroke" d="
  M 145.43 202.52
  Q 143.56 202.23 142.47 202.82"
/>
<path stroke="#656c6c" vector-effect="non-scaling-stroke" d="
  M 286.12 222.74
  Q 285.19 224.58 281.45 224.09"
/>
<path stroke="#679e9d" vector-effect="non-scaling-stroke" d="
  M 246.78 137.19
  Q 248.28 145.96 249.40 155.23
  Q 249.86 158.98 249.19 160.51
  Q 245.87 168.12 228.70 201.22
  A 0.17 0.17 0.0 0 0 228.77 201.45
  L 229.01 201.56
  A 0.40 0.40 0.0 0 0 229.53 201.41
  Q 238.18 187.04 247.09 167.61
  Q 247.51 166.70 249.16 163.75
  A 0.64 0.64 0.0 0 1 250.35 164.03
  Q 250.50 166.93 250.43 170.24
  Q 250.22 178.98 248.40 202.72
  Q 247.26 217.52 244.60 235.64
  Q 244.22 238.16 243.28 242.33
  Q 242.53 245.64 241.97 249.00"
/>
<path stroke="#679e9d" vector-effect="non-scaling-stroke" d="
  M 189.33 158.09
  Q 190.55 159.60 191.39 159.69
  A 0.49 0.48 73.6 0 1 191.73 159.88
  Q 197.96 168.04 202.31 174.29
  C 204.06 176.81 206.44 179.33 208.07 181.25
  C 209.73 183.23 211.31 185.92 213.44 187.93
  A 1.45 1.35 -88.0 0 1 213.57 188.08
  L 224.61 204.40
  A 0.49 0.49 0.0 0 0 225.26 204.56
  L 225.27 204.55
  A 0.44 0.44 0.0 0 0 225.44 203.93
  Q 218.56 192.44 214.00 186.73
  Q 200.87 170.25 189.58 155.04
  A 0.30 0.29 -61.6 0 0 189.05 155.20
  L 189.00 156.06"
/>
<path stroke="#d6cec4" vector-effect="non-scaling-stroke" d="
  M 174.72 199.16
  Q 175.78 209.61 174.10 218.64
  Q 173.86 219.95 173.94 220.95
  Q 174.13 223.10 174.13 223.24
  Q 173.29 236.42 169.15 249.00"
/>
<path stroke="#d6cec4" vector-effect="non-scaling-stroke" d="
  M 158.66 249.00
  Q 151.54 235.27 148.03 219.23
  Q 145.96 209.75 145.43 202.52"
/>
<path stroke="#fcd5c4" vector-effect="non-scaling-stroke" d="
  M 168.89 182.79
  L 163.50 189.08
  A 2.31 2.29 61.2 0 0 162.97 190.93
  Q 163.55 194.62 164.84 197.95
  Q 166.78 202.98 172.76 218.62
  A 0.39 0.39 0.0 0 0 173.51 218.47
  Q 173.49 216.76 173.02 215.50
  Q 169.02 204.67 164.92 194.23
  A 4.17 3.99 -73.5 0 0 164.55 193.51
  Q 163.63 192.11 163.89 190.30
  A 1.20 1.15 70.4 0 1 164.15 189.72
  L 169.72 183.23
  A 0.13 0.13 0.0 0 0 169.71 183.04
  L 169.37 182.75
  A 0.34 0.34 0.0 0 0 168.89 182.79"
/>
<path stroke="#826e69" vector-effect="non-scaling-stroke" d="
  M 286.5396 231.1307
  A 7.76 7.41 -67.5 0 0 276.7241 235.4643
  A 7.76 7.41 -67.5 0 0 280.6004 245.4693
  A 7.76 7.41 -67.5 0 0 290.4159 241.1357
  A 7.76 7.41 -67.5 0 0 286.5396 231.1307"
/>
<path stroke="#826e69" vector-effect="non-scaling-stroke" d="
  M 286.1383 232.6093
  A 6.14 5.78 -66.5 0 0 278.3894 235.9352
  A 6.14 5.78 -66.5 0 0 281.2417 243.8707
  A 6.14 5.78 -66.5 0 0 288.9906 240.5448
  A 6.14 5.78 -66.5 0 0 286.1383 232.6093"
/>
</g>
<path fill="#fcf7fa" d="
  M 447.00 0.00
  L 447.00 249.00
  L 444.31 249.00
  Q 446.26 243.87 446.27 235.00
  Q 446.45 76.79 446.23 15.98
  C 446.19 4.77 440.19 3.01 430.24 2.99
  Q 373.25 2.90 321.68 3.04
  C 319.28 3.05 316.82 3.45 314.45 3.82
  Q 313.52 3.10 312.93 3.09
  Q 302.08 2.80 281.97 3.09
  L 272.89 3.07
  L 260.33 3.16
  L 236.73 3.08
  L 227.62 3.09
  L 225.61 3.03
  L 164.38 3.04
  L 115.74 3.41
  Q 112.41 3.61 109.39 3.40
  Q 104.15 3.05 103.07 3.05
  Q 34.96 2.86 14.82 3.06
  C 5.47 3.15 1.16 7.14 1.15 16.80
  Q 1.04 200.52 1.16 239.93
  Q 1.17 244.41 3.51 249.00
  L 0.00 249.00
  L 0.00 0.00
  L 447.00 0.00
  Z"
/>
<path fill="#fcf0e4" d="
  M 115.74 3.41
  Q 104.90 16.95 99.77 31.02
  Q 93.42 48.43 91.92 67.21
  Q 90.76 81.65 89.64 96.24
  C 88.09 116.53 84.14 131.49 78.69 154.69
  Q 76.00 166.13 75.12 175.33
  Q 73.78 189.29 76.77 205.41
  Q 78.23 213.32 81.23 220.26
  Q 85.49 230.10 88.73 234.18
  Q 89.14 234.68 89.34 234.86
  A 0.62 0.62 0.0 0 0 90.36 234.52
  Q 94.76 212.66 101.66 191.15
  Q 104.36 182.73 109.70 169.87
  A 4.09 3.78 -18.3 0 1 110.17 169.02
  L 114.03 163.56
  L 114.77 162.36
  L 117.89 159.82
  Q 121.33 158.26 124.69 156.38
  Q 129.16 153.89 131.42 152.81
  Q 142.78 147.36 154.21 142.06
  Q 157.27 140.18 160.10 139.62
  C 154.83 148.21 153.81 156.47 152.95 166.55
  A 2.94 2.93 73.9 0 1 151.79 168.65
  C 146.90 172.34 143.42 175.08 141.71 181.45
  Q 138.74 192.53 142.47 202.82
  Q 144.41 218.52 148.86 233.76
  C 150.39 239.02 152.75 243.96 155.05 249.00
  L 138.21 249.00
  Q 139.29 248.97 138.93 246.97
  Q 138.55 244.86 138.52 244.53
  Q 137.16 230.43 134.63 210.88
  C 132.97 198.11 130.12 189.66 125.19 175.80
  Q 124.80 174.70 121.21 169.14
  A 0.26 0.26 0.0 0 0 120.85 169.06
  L 120.84 169.06
  A 0.26 0.26 0.0 0 0 120.75 169.40
  C 126.00 179.16 128.52 188.20 131.18 199.12
  Q 132.91 206.20 134.02 217.55
  Q 135.54 233.25 136.47 249.00
  L 3.51 249.00
  Q 1.17 244.41 1.16 239.93
  Q 1.04 200.52 1.15 16.80
  C 1.16 7.14 5.47 3.15 14.82 3.06
  Q 34.96 2.86 103.07 3.05
  Q 104.15 3.05 109.39 3.40
  Q 112.41 3.61 115.74 3.41
  Z"
/>
<path fill="#fcb9a3" d="
  M 164.38 3.04
  L 161.35 9.74
  Q 159.25 13.10 158.83 14.35
  C 154.32 27.81 150.16 39.46 136.55 46.01
  A 0.34 0.33 64.6 0 0 136.40 46.45
  L 136.40 46.46
  A 0.34 0.33 -23.0 0 0 136.83 46.63
  Q 143.54 43.81 148.84 38.02
  C 153.70 32.70 157.00 23.81 159.13 16.86
  A 0.50 0.50 0.0 0 1 159.98 16.67
  Q 160.25 16.98 160.04 17.57
  C 157.85 26.19 154.14 36.23 147.58 42.59
  C 139.15 50.75 124.66 57.47 123.52 71.15
  Q 122.96 77.88 124.62 82.65
  Q 126.13 86.99 129.49 96.00
  Q 131.54 101.50 130.79 108.03
  Q 129.68 112.43 127.47 116.29
  Q 125.97 118.91 121.74 123.07
  Q 116.95 127.77 113.58 132.37
  Q 102.47 147.58 114.03 163.56
  L 110.17 169.02
  A 4.09 3.78 -18.3 0 0 109.70 169.87
  Q 104.36 182.73 101.66 191.15
  Q 94.76 212.66 90.36 234.52
  A 0.62 0.62 0.0 0 1 89.34 234.86
  Q 89.14 234.68 88.73 234.18
  Q 85.49 230.10 81.23 220.26
  Q 78.23 213.32 76.77 205.41
  Q 73.78 189.29 75.12 175.33
  Q 76.00 166.13 78.69 154.69
  C 84.14 131.49 88.09 116.53 89.64 96.24
  Q 90.76 81.65 91.92 67.21
  Q 93.42 48.43 99.77 31.02
  Q 104.90 16.95 115.74 3.41
  L 164.38 3.04
  Z
  M 124.47 114.18
  Q 126.43 112.38 126.82 108.87
  C 127.57 102.06 125.52 98.21 122.54 91.24
  Q 117.86 80.32 122.50 69.40
  A 0.07 0.06 -70.2 0 0 122.47 69.32
  L 122.23 69.22
  A 0.20 0.19 24.4 0 0 121.98 69.31
  Q 117.64 78.56 120.13 87.87
  C 121.20 91.88 123.86 96.73 124.93 100.55
  Q 126.79 107.24 124.07 113.91
  A 0.25 0.25 0.0 0 0 124.47 114.18
  Z"
/>
<path fill="#55302d" d="
  M 225.61 3.03
  Q 220.01 13.72 214.46 18.71
  Q 209.39 23.27 206.80 25.76
  Q 204.14 28.32 195.18 32.63
  Q 191.48 34.41 182.07 37.99
  C 177.78 39.63 175.07 41.22 170.85 43.42
  A 0.34 0.33 63.1 0 0 170.71 43.87
  L 170.75 43.96
  A 0.35 0.35 0.0 0 0 171.22 44.11
  C 173.51 42.97 175.76 41.53 178.19 40.62
  Q 188.12 36.90 188.72 36.70
  Q 195.29 34.47 199.03 32.27
  Q 207.86 27.05 211.63 24.09
  Q 216.82 20.00 223.10 10.35
  A 7.37 7.01 -8.0 0 1 223.79 9.48
  Q 225.41 7.77 227.69 5.52
  Q 228.45 4.78 227.62 3.09
  L 236.73 3.08
  L 235.70 4.03
  Q 232.42 5.94 230.16 9.39
  L 226.58 15.80
  C 222.16 23.85 217.64 28.56 212.29 34.68
  A 2.78 2.07 -79.9 0 1 211.95 35.00
  L 202.61 42.54
  Q 199.82 42.90 198.91 43.70
  Q 196.52 45.79 194.00 47.75
  A 1.09 1.08 -17.5 0 0 193.59 48.53
  L 193.43 51.28
  Q 193.31 49.30 192.08 49.57
  A 0.71 0.68 16.8 0 0 191.75 49.74
  Q 186.23 54.79 183.27 62.11
  Q 180.74 66.26 180.59 71.63
  Q 180.36 79.91 180.10 88.07
  Q 179.57 104.28 168.44 114.67
  Q 164.02 118.81 161.84 120.76
  Q 157.46 124.68 156.14 126.70
  C 153.24 131.16 150.54 137.29 154.21 142.06
  Q 142.78 147.36 131.42 152.81
  Q 129.16 153.89 124.69 156.38
  Q 121.33 158.26 117.89 159.82
  C 114.68 152.90 112.91 146.03 115.42 138.82
  C 119.44 134.06 121.74 128.44 126.32 124.32
  A 0.42 0.42 0.0 0 1 126.99 124.79
  L 122.83 134.56
  A 0.04 0.03 38.0 0 0 122.84 134.60
  L 123.33 135.17
  A 0.30 0.29 19.4 0 0 123.69 135.00
  Q 126.81 127.59 129.58 123.79
  Q 135.93 115.10 139.39 110.58
  C 146.93 100.72 142.39 92.00 138.68 81.70
  A 0.36 0.35 -17.6 0 0 138.25 81.48
  L 138.13 81.52
  A 0.36 0.36 0.0 0 0 137.88 81.93
  Q 138.97 87.26 141.26 93.65
  C 143.73 100.56 141.35 106.29 136.82 111.41
  A 0.70 0.70 0.0 0 1 135.61 111.11
  L 134.23 105.46
  L 132.83 100.26
  A 0.23 0.23 0.0 0 0 132.38 100.31
  L 132.12 108.33
  L 131.89 103.86
  A 0.19 0.19 0.0 0 0 131.60 103.71
  L 131.22 103.97
  A 0.24 0.23 -19.7 0 0 131.11 104.20
  Q 131.38 106.23 130.79 108.03
  Q 131.54 101.50 129.49 96.00
  Q 126.13 86.99 124.62 82.65
  Q 122.96 77.88 123.52 71.15
  C 124.66 57.47 139.15 50.75 147.58 42.59
  C 154.14 36.23 157.85 26.19 160.04 17.57
  Q 162.56 12.95 161.35 9.74
  L 164.38 3.04
  L 225.61 3.03
  Z
  M 163.39 70.84
  A 0.29 0.29 0.0 0 0 163.71 70.61
  C 165.55 61.03 170.92 51.86 180.36 48.56
  Q 183.65 47.41 195.34 43.58
  A 0.31 0.31 0.0 0 0 195.19 42.98
  C 178.37 45.59 163.65 50.90 163.20 70.69
  A 0.15 0.15 0.0 0 0 163.33 70.84
  L 163.39 70.84
  Z
  M 139.05 138.89
  C 141.16 131.53 144.14 126.77 149.84 122.02
  Q 151.98 120.24 155.85 117.34
  C 166.97 109.01 173.73 96.93 172.24 82.74
  C 171.39 74.74 170.34 65.99 173.73 58.05
  Q 174.20 56.94 177.00 53.47
  A 0.23 0.23 0.0 0 0 176.98 53.15
  L 176.97 53.15
  A 0.22 0.21 42.1 0 0 176.67 53.16
  C 167.81 62.64 169.79 71.85 170.56 85.50
  C 171.22 97.08 165.99 106.38 157.32 114.07
  C 154.20 116.83 149.00 120.08 145.82 123.94
  C 142.06 128.51 138.95 132.46 138.64 138.83
  A 0.21 0.21 0.0 0 0 139.05 138.89
  Z"
/>
<path fill="#79473a" d="
  M 227.62 3.09
  Q 228.45 4.78 227.69 5.52
  Q 225.41 7.77 223.79 9.48
  A 7.37 7.01 -8.0 0 0 223.10 10.35
  Q 216.82 20.00 211.63 24.09
  Q 207.86 27.05 199.03 32.27
  Q 195.29 34.47 188.72 36.70
  Q 188.12 36.90 178.19 40.62
  C 175.76 41.53 173.51 42.97 171.22 44.11
  A 0.35 0.35 0.0 0 1 170.75 43.96
  L 170.71 43.87
  A 0.34 0.33 63.1 0 1 170.85 43.42
  C 175.07 41.22 177.78 39.63 182.07 37.99
  Q 191.48 34.41 195.18 32.63
  Q 204.14 28.32 206.80 25.76
  Q 209.39 23.27 214.46 18.71
  Q 220.01 13.72 225.61 3.03
  L 227.62 3.09
  Z"
/>
<path fill="#fba88b" d="
  M 260.33 3.16
  Q 264.85 6.30 266.68 9.33
  Q 270.15 15.04 271.63 23.54
  Q 272.70 29.70 273.15 31.43
  A 0.51 0.51 0.0 0 1 272.58 32.06
  Q 267.88 31.34 262.70 32.85
  A 3.82 3.80 4.9 0 0 260.34 34.83
  L 259.75 36.04
  A 1.49 1.49 0.0 0 0 261.46 38.14
  C 266.31 36.92 269.58 35.69 272.87 36.05
  A 0.86 0.86 0.0 0 1 273.63 37.01
  Q 272.53 46.02 269.56 43.25
  Q 266.19 40.85 262.75 40.93
  C 258.44 41.03 256.59 44.24 256.62 48.40
  Q 256.68 57.10 261.60 63.99
  A 4.00 3.50 46.9 0 1 261.75 68.46
  Q 261.06 69.38 259.36 70.50
  A 1.90 1.86 25.0 0 1 258.45 70.82
  Q 257.46 70.90 256.58 70.42
  C 254.27 69.16 251.38 69.20 249.45 70.82
  A 1.65 1.65 0.0 0 1 246.80 69.99
  L 246.17 67.63
  A 0.65 0.65 0.0 0 0 244.91 67.64
  Q 243.80 72.23 248.17 73.12
  Q 253.63 74.22 259.09 72.62
  Q 260.63 72.17 263.33 69.20
  A 1.68 1.64 -22.5 0 0 263.76 68.20
  Q 263.95 65.25 263.22 64.05
  C 260.67 59.84 257.76 55.04 257.34 50.23
  Q 257.95 49.50 258.05 49.09
  Q 262.53 51.24 262.13 48.95
  Q 263.19 50.52 265.11 50.02
  Q 266.28 49.72 266.61 49.06
  Q 268.21 50.55 270.05 46.66
  Q 270.39 46.85 270.79 47.32
  A 1.42 1.41 27.2 0 1 271.12 48.33
  Q 270.96 50.89 271.34 52.30
  Q 273.86 61.60 272.46 68.02
  C 270.20 78.36 263.76 90.11 258.40 101.14
  C 254.77 108.62 248.21 110.13 240.74 108.17
  Q 227.58 103.34 222.78 99.97
  C 215.23 94.68 206.69 90.39 201.72 81.55
  Q 199.79 78.13 197.34 70.45
  A 1.00 0.99 89.4 0 0 196.68 69.80
  Q 195.43 69.42 194.88 70.52
  Q 192.00 72.84 189.65 71.39
  A 1.24 1.19 -85.8 0 1 189.16 70.80
  L 188.61 69.37
  A 1.37 1.36 1.8 0 0 187.91 68.63
  Q 183.68 66.68 183.27 62.11
  Q 186.23 54.79 191.75 49.74
  A 0.71 0.68 16.8 0 1 192.08 49.57
  Q 193.31 49.30 193.43 51.28
  Q 195.11 57.23 197.41 63.06
  Q 197.68 63.74 199.31 65.67
  A 0.14 0.14 0.0 0 0 199.55 65.56
  L 198.98 62.21
  Q 198.63 51.18 204.41 43.67
  Q 206.09 41.47 211.96 37.71
  A 3.95 3.70 0.2 0 0 212.96 36.78
  C 214.50 34.71 216.65 33.41 218.48 31.54
  Q 219.66 30.33 225.40 23.62
  A 0.78 0.69 -14.9 0 0 225.50 23.47
  L 231.83 10.56
  A 3.68 3.41 -13.7 0 1 232.30 9.85
  Q 234.56 7.23 235.70 4.03
  L 236.73 3.08
  L 260.33 3.16
  Z
  M 216.68 36.29
  A 0.31 0.31 0.0 0 0 217.04 36.79
  C 226.66 31.98 234.02 35.04 243.68 37.78
  A 3.14 3.14 0.0 0 0 247.48 35.85
  L 247.52 35.74
  A 2.80 2.80 0.0 0 0 245.62 32.06
  Q 239.56 30.45 232.93 30.00
  Q 223.69 29.39 216.68 36.29
  Z
  M 220.00 45.51
  Q 220.20 46.69 222.66 47.25
  L 228.16 50.85
  A 0.94 0.85 -57.4 0 0 229.39 50.51
  Q 229.43 50.44 229.31 49.68
  Q 230.39 50.28 230.65 49.39
  Q 233.30 51.08 235.22 49.66
  Q 238.59 50.46 240.54 48.65
  Q 240.77 48.92 241.27 49.13
  A 0.36 0.36 0.0 0 0 241.74 48.66
  Q 240.39 45.26 237.99 43.42
  Q 236.62 42.37 233.51 42.19
  Q 231.29 42.06 228.77 42.01
  Q 232.41 40.08 237.32 41.85
  A 0.64 0.59 -80.2 0 0 238.11 41.24
  Q 238.12 41.08 237.88 40.87
  Q 237.64 40.67 237.51 40.63
  Q 229.96 38.29 222.26 42.79
  Q 220.38 43.88 220.00 45.51
  Z
  M 189.70 68.28
  Q 189.37 68.28 189.24 68.50
  Q 189.09 68.75 189.23 68.95
  Q 189.72 69.67 190.28 69.98
  Q 190.80 70.25 190.97 69.74
  Q 191.07 69.44 190.74 69.01
  Q 191.59 69.30 192.34 69.29
  Q 193.23 69.29 193.35 68.66
  Q 193.45 68.14 193.00 67.39
  Q 194.15 67.22 193.85 66.12
  Q 193.58 65.10 192.51 65.21
  Q 192.43 63.99 192.77 62.66
  Q 192.99 61.78 192.43 61.45
  A 0.86 0.84 -75.0 0 0 191.16 62.20
  Q 191.13 64.77 189.64 66.61
  Q 189.35 66.98 189.43 67.44
  Q 189.50 67.86 189.70 68.28
  Z
  M 237.30 82.91
  A 0.52 0.52 0.0 0 0 236.78 83.79
  Q 240.49 87.16 243.49 89.76
  Q 248.00 93.68 253.88 92.63
  C 257.36 92.01 259.18 90.34 259.97 86.97
  Q 260.46 84.89 261.71 83.60
  A 0.91 0.90 54.5 0 0 261.88 82.58
  C 260.17 78.97 258.03 79.29 253.99 79.35
  Q 250.58 79.40 249.55 79.82
  C 244.63 81.87 241.00 84.19 237.30 82.91
  Z"
/>
<path fill="#372020" d="
  M 272.89 3.07
  Q 273.81 5.43 274.92 7.71
  Q 276.44 10.82 276.73 12.37
  Q 277.62 17.12 278.34 21.61
  Q 278.75 24.15 278.34 30.91
  Q 277.60 43.26 277.71 54.29
  Q 277.82 64.82 281.28 77.99
  C 282.87 84.06 286.28 90.07 288.89 96.36
  Q 291.39 102.38 291.06 107.36
  C 290.56 114.80 287.33 119.11 281.42 124.58
  Q 277.64 128.06 273.81 132.24
  A 0.53 0.52 34.2 0 1 273.20 132.35
  L 272.92 132.21
  A 0.55 0.54 33.2 0 1 272.74 131.37
  C 280.61 122.09 292.29 116.60 287.84 103.03
  Q 286.75 99.71 281.30 93.01
  Q 276.62 87.25 272.54 80.04
  A 0.50 0.50 0.0 0 0 271.62 80.16
  C 270.37 85.29 270.45 89.48 272.31 94.69
  C 275.35 103.22 275.81 109.84 270.25 117.85
  C 266.82 122.79 262.26 129.79 265.70 136.06
  C 262.11 132.36 258.62 129.43 253.84 127.46
  Q 248.29 122.60 241.71 119.65
  Q 240.88 119.00 240.88 118.27
  Q 240.92 114.32 240.43 111.32
  L 240.74 108.17
  C 248.21 110.13 254.77 108.62 258.40 101.14
  C 263.76 90.11 270.20 78.36 272.46 68.02
  Q 273.86 61.60 271.34 52.30
  Q 270.96 50.89 271.12 48.33
  A 1.42 1.41 27.2 0 0 270.79 47.32
  Q 270.39 46.85 270.05 46.66
  Q 268.37 45.12 267.54 45.95
  A 0.35 0.30 -19.4 0 0 267.45 46.11
  L 266.61 49.06
  Q 266.28 49.72 265.11 50.02
  Q 263.19 50.52 262.13 48.95
  Q 261.64 47.55 261.02 46.79
  A 0.50 0.49 -42.5 0 0 260.28 46.76
  L 258.05 49.09
  Q 257.95 49.50 257.34 50.23
  Q 257.04 49.95 257.08 49.30
  A 1.59 1.57 65.7 0 1 257.40 48.44
  C 260.78 44.05 263.53 42.24 269.56 43.25
  Q 272.53 46.02 273.63 37.01
  A 0.86 0.86 0.0 0 0 272.87 36.05
  C 269.58 35.69 266.31 36.92 261.46 38.14
  A 1.49 1.49 0.0 0 1 259.75 36.04
  L 260.34 34.83
  A 3.82 3.80 4.9 0 1 262.70 32.85
  Q 267.88 31.34 272.58 32.06
  A 0.51 0.51 0.0 0 0 273.15 31.43
  Q 272.70 29.70 271.63 23.54
  Q 270.15 15.04 266.68 9.33
  Q 264.85 6.30 260.33 3.16
  L 272.89 3.07
  Z"
/>
<path fill="#55302d" d="
  M 281.97 3.09
  L 283.83 8.16
  Q 282.92 8.46 282.43 9.00
  Q 281.37 6.26 279.70 4.29
  A 0.60 0.60 0.0 0 0 278.71 4.96
  Q 284.90 16.62 284.01 29.97
  A 0.61 0.61 0.0 0 0 285.06 30.43
  Q 285.65 29.82 285.79 28.44
  Q 285.56 40.07 287.19 51.16
  Q 287.00 54.22 289.29 57.54
  C 290.91 64.06 295.12 69.09 299.83 75.14
  Q 309.84 87.99 310.79 104.24
  Q 311.21 111.40 309.28 117.03
  C 307.21 123.04 302.94 127.91 298.39 132.39
  Q 294.48 136.22 292.27 140.97
  A 2.84 2.69 -32.2 0 0 292.01 141.99
  L 291.80 145.88
  L 265.87 136.29
  Q 265.78 136.18 265.70 136.06
  C 262.26 129.79 266.82 122.79 270.25 117.85
  C 275.81 109.84 275.35 103.22 272.31 94.69
  C 270.45 89.48 270.37 85.29 271.62 80.16
  A 0.50 0.50 0.0 0 1 272.54 80.04
  Q 276.62 87.25 281.30 93.01
  Q 286.75 99.71 287.84 103.03
  C 292.29 116.60 280.61 122.09 272.74 131.37
  A 0.55 0.54 33.2 0 0 272.92 132.21
  L 273.20 132.35
  A 0.53 0.52 34.2 0 0 273.81 132.24
  Q 277.64 128.06 281.42 124.58
  C 287.33 119.11 290.56 114.80 291.06 107.36
  Q 291.39 102.38 288.89 96.36
  C 286.28 90.07 282.87 84.06 281.28 77.99
  Q 277.82 64.82 277.71 54.29
  Q 277.60 43.26 278.34 30.91
  Q 278.75 24.15 278.34 21.61
  Q 277.62 17.12 276.73 12.37
  Q 276.44 10.82 274.92 7.71
  Q 273.81 5.43 272.89 3.07
  L 281.97 3.09
  Z
  M 283.23 27.06
  C 282.56 29.61 282.65 33.68 282.59 37.46
  Q 282.57 39.17 281.78 46.62
  C 279.98 63.69 283.86 77.23 296.13 90.02
  A 0.37 0.36 43.5 0 0 296.67 90.01
  L 296.88 89.76
  A 0.18 0.18 0.0 0 0 296.89 89.54
  Q 295.60 87.67 291.84 82.56
  C 286.30 75.03 283.75 67.13 282.51 57.61
  C 281.32 48.50 284.26 34.79 283.71 27.11
  A 0.25 0.24 50.5 0 0 283.23 27.06
  Z
  M 291.94 139.83
  Q 293.28 136.20 297.11 132.08
  C 301.27 127.60 304.68 124.25 307.04 119.25
  Q 309.82 113.35 309.97 106.57
  A 0.23 0.23 0.0 0 0 309.52 106.52
  Q 307.55 115.30 301.61 121.59
  C 298.16 125.24 293.41 130.83 292.24 133.77
  Q 291.15 136.51 291.24 139.72
  A 0.36 0.36 0.0 0 0 291.94 139.83
  Z"
/>
<path fill="#fcb9a3" d="
  M 314.45 3.82
  Q 314.58 4.19 314.83 4.40
  Q 340.26 25.54 351.06 56.21
  Q 361.05 84.57 360.03 114.53
  C 359.36 134.12 356.01 152.72 351.19 171.50
  Q 344.26 198.53 331.80 223.07
  A 0.43 0.43 0.0 0 1 330.99 222.96
  Q 326.85 203.06 321.03 180.82
  C 319.27 174.10 317.28 168.56 314.65 163.08
  Q 311.45 156.43 304.81 152.46
  Q 298.49 148.67 291.80 145.88
  L 292.01 141.99
  A 2.84 2.69 -32.2 0 1 292.27 140.97
  Q 294.48 136.22 298.39 132.39
  C 302.94 127.91 307.21 123.04 309.28 117.03
  Q 311.21 111.40 310.79 104.24
  Q 309.84 87.99 299.83 75.14
  C 295.12 69.09 290.91 64.06 289.29 57.54
  L 289.69 57.25
  Q 293.75 64.31 301.37 67.21
  A 0.19 0.19 0.0 0 0 301.61 67.11
  L 301.61 67.10
  A 0.17 0.16 -64.3 0 0 301.54 66.88
  C 285.45 58.92 287.23 44.51 287.66 29.00
  Q 287.92 19.61 283.83 8.16
  L 281.97 3.09
  Q 302.08 2.80 312.93 3.09
  Q 313.52 3.10 314.45 3.82
  Z"
/>
<path fill="#fcf0e4" d="
  M 444.31 249.00
  L 301.85 249.00
  Q 302.50 234.30 303.41 219.60
  C 304.44 203.04 306.99 187.86 308.59 172.40
  Q 308.82 170.13 308.90 168.06
  A 0.27 0.27 0.0 0 0 308.65 167.79
  L 308.59 167.78
  A 0.18 0.18 0.0 0 0 308.40 167.94
  Q 303.59 196.12 300.83 224.16
  A 0.66 0.65 1.0 0 1 300.21 224.75
  Q 295.09 224.95 291.18 226.19
  A 0.27 0.26 -56.2 0 0 291.28 226.71
  L 300.61 225.81
  A 0.35 0.34 -1.4 0 1 300.99 226.17
  L 299.81 249.00
  L 289.33 249.00
  Q 301.62 236.73 286.64 227.60
  A 2.19 2.18 -62.3 0 1 285.79 224.83
  Q 286.43 223.43 286.12 222.74
  Q 287.35 201.46 284.35 180.54
  Q 281.45 160.27 271.17 143.58
  Q 269.32 140.58 266.17 137.23
  Q 265.98 137.02 265.92 136.79
  Q 265.86 136.53 265.87 136.29
  L 291.80 145.88
  Q 298.49 148.67 304.81 152.46
  Q 311.45 156.43 314.65 163.08
  C 317.28 168.56 319.27 174.10 321.03 180.82
  Q 326.85 203.06 330.99 222.96
  A 0.43 0.43 0.0 0 0 331.80 223.07
  Q 344.26 198.53 351.19 171.50
  C 356.01 152.72 359.36 134.12 360.03 114.53
  Q 361.05 84.57 351.06 56.21
  Q 340.26 25.54 314.83 4.40
  Q 314.58 4.19 314.45 3.82
  C 316.82 3.45 319.28 3.05 321.68 3.04
  Q 373.25 2.90 430.24 2.99
  C 440.19 3.01 446.19 4.77 446.23 15.98
  Q 446.45 76.79 446.27 235.00
  Q 446.26 243.87 444.31 249.00
  Z"
/>
<path fill="#ed7e69" d="
  M 235.70 4.03
  Q 234.56 7.23 232.30 9.85
  A 3.68 3.41 -13.7 0 0 231.83 10.56
  L 225.50 23.47
  A 0.78 0.69 -14.9 0 1 225.40 23.62
  Q 219.66 30.33 218.48 31.54
  C 216.65 33.41 214.50 34.71 212.96 36.78
  A 3.95 3.70 0.2 0 1 211.96 37.71
  Q 206.09 41.47 204.41 43.67
  Q 198.63 51.18 198.98 62.21
  Q 197.60 57.90 198.19 54.87
  Q 199.09 50.21 202.61 42.54
  L 211.95 35.00
  A 2.78 2.07 -79.9 0 0 212.29 34.68
  C 217.64 28.56 222.16 23.85 226.58 15.80
  Q 226.45 16.22 226.57 16.50
  A 0.41 0.41 0.0 0 0 227.30 16.55
  Q 229.17 13.42 230.76 10.12
  Q 230.96 9.71 230.65 9.42
  Q 230.49 9.27 230.16 9.39
  Q 232.42 5.94 235.70 4.03
  Z"
/>
<path fill="#79473a" d="
  M 282.43 9.00
  Q 286.05 18.36 285.79 28.44
  Q 285.65 29.82 285.06 30.43
  A 0.61 0.61 0.0 0 1 284.01 29.97
  Q 284.90 16.62 278.71 4.96
  A 0.60 0.60 0.0 0 1 279.70 4.29
  Q 281.37 6.26 282.43 9.00
  Z"
/>
<path fill="#372020" d="
  M 283.83 8.16
  Q 287.92 19.61 287.66 29.00
  C 287.23 44.51 285.45 58.92 301.54 66.88
  A 0.17 0.16 -64.3 0 1 301.61 67.10
  L 301.61 67.11
  A 0.19 0.19 0.0 0 1 301.37 67.21
  Q 293.75 64.31 289.69 57.25
  L 287.19 51.16
  Q 285.56 40.07 285.79 28.44
  Q 286.05 18.36 282.43 9.00
  Q 282.92 8.46 283.83 8.16
  Z"
/>
<path fill="#fba88b" d="
  M 226.58 15.80
  L 230.16 9.39
  Q 230.49 9.27 230.65 9.42
  Q 230.96 9.71 230.76 10.12
  Q 229.17 13.42 227.30 16.55
  A 0.41 0.41 0.0 0 1 226.57 16.50
  Q 226.45 16.22 226.58 15.80
  Z"
/>
<path fill="#79473a" d="
  M 161.35 9.74
  Q 162.56 12.95 160.04 17.57
  Q 160.25 16.98 159.98 16.67
  A 0.50 0.50 0.0 0 0 159.13 16.86
  C 157.00 23.81 153.70 32.70 148.84 38.02
  Q 143.54 43.81 136.83 46.63
  A 0.34 0.33 -23.0 0 1 136.40 46.46
  L 136.40 46.45
  A 0.34 0.33 64.6 0 1 136.55 46.01
  C 150.16 39.46 154.32 27.81 158.83 14.35
  Q 159.25 13.10 161.35 9.74
  Z"
/>
<path fill="#372020" d="
  M 283.71 27.11
  C 284.26 34.79 281.32 48.50 282.51 57.61
  C 283.75 67.13 286.30 75.03 291.84 82.56
  Q 295.60 87.67 296.89 89.54
  A 0.18 0.18 0.0 0 1 296.88 89.76
  L 296.67 90.01
  A 0.37 0.36 43.5 0 1 296.13 90.02
  C 283.86 77.23 279.98 63.69 281.78 46.62
  Q 282.57 39.17 282.59 37.46
  C 282.65 33.68 282.56 29.61 283.23 27.06
  A 0.25 0.24 50.5 0 1 283.71 27.11
  Z"
/>
<path fill="#372020" d="
  M 216.68 36.29
  Q 223.69 29.39 232.93 30.00
  Q 239.56 30.45 245.62 32.06
  A 2.80 2.80 0.0 0 1 247.52 35.74
  L 247.48 35.85
  A 3.14 3.14 0.0 0 1 243.68 37.78
  C 234.02 35.04 226.66 31.98 217.04 36.79
  A 0.31 0.31 0.0 0 1 216.68 36.29
  Z"
/>
<path fill="#e14f47" d="
  M 228.77 42.01
  Q 224.93 44.35 220.00 45.51
  Q 220.38 43.88 222.26 42.79
  Q 229.96 38.29 237.51 40.63
  Q 237.64 40.67 237.88 40.87
  Q 238.12 41.08 238.11 41.24
  A 0.64 0.59 -80.2 0 1 237.32 41.85
  Q 232.41 40.08 228.77 42.01
  Z"
/>
<path fill="#ed7e69" d="
  M 269.56 43.25
  C 263.53 42.24 260.78 44.05 257.40 48.44
  A 1.59 1.57 65.7 0 0 257.08 49.30
  Q 257.04 49.95 257.34 50.23
  C 257.76 55.04 260.67 59.84 263.22 64.05
  Q 263.95 65.25 263.76 68.20
  A 1.68 1.64 -22.5 0 1 263.33 69.20
  Q 260.63 72.17 259.09 72.62
  Q 253.63 74.22 248.17 73.12
  Q 243.80 72.23 244.91 67.64
  A 0.65 0.65 0.0 0 1 246.17 67.63
  L 246.80 69.99
  A 1.65 1.65 0.0 0 0 249.45 70.82
  C 251.38 69.20 254.27 69.16 256.58 70.42
  Q 257.46 70.90 258.45 70.82
  A 1.90 1.86 25.0 0 0 259.36 70.50
  Q 261.06 69.38 261.75 68.46
  A 4.00 3.50 46.9 0 0 261.60 63.99
  Q 256.68 57.10 256.62 48.40
  C 256.59 44.24 258.44 41.03 262.75 40.93
  Q 266.19 40.85 269.56 43.25
  Z"
/>
<path fill="#372020" d="
  M 202.61 42.54
  Q 199.09 50.21 198.19 54.87
  Q 197.60 57.90 198.98 62.21
  L 199.55 65.56
  A 0.14 0.14 0.0 0 1 199.31 65.67
  Q 197.68 63.74 197.41 63.06
  Q 195.11 57.23 193.43 51.28
  L 193.59 48.53
  A 1.09 1.08 -17.5 0 1 194.00 47.75
  Q 196.52 45.79 198.91 43.70
  Q 199.82 42.90 202.61 42.54
  Z"
/>
<path fill="#372020" d="
  M 240.54 48.65
  Q 239.15 46.51 237.71 45.41
  A 0.29 0.29 0.0 0 0 237.24 45.63
  Q 237.16 47.74 235.22 49.66
  Q 233.30 51.08 230.65 49.39
  Q 229.21 47.51 229.46 45.09
  A 0.34 0.34 0.0 0 0 228.97 44.74
  L 224.98 46.66
  L 222.66 47.25
  Q 220.20 46.69 220.00 45.51
  Q 224.93 44.35 228.77 42.01
  Q 231.29 42.06 233.51 42.19
  Q 236.62 42.37 237.99 43.42
  Q 240.39 45.26 241.74 48.66
  A 0.36 0.36 0.0 0 1 241.27 49.13
  Q 240.77 48.92 240.54 48.65
  Z"
/>
<path fill="#79473a" d="
  M 163.20 70.69
  C 163.65 50.90 178.37 45.59 195.19 42.98
  A 0.31 0.31 0.0 0 1 195.34 43.58
  Q 183.65 47.41 180.36 48.56
  C 170.92 51.86 165.55 61.03 163.71 70.61
  A 0.29 0.29 0.0 0 1 163.39 70.84
  L 163.33 70.84
  A 0.15 0.15 0.0 0 1 163.20 70.69
  Z"
/>
<path fill="#fcf0e4" d="
  M 230.65 49.39
  Q 230.39 50.28 229.31 49.68
  Q 226.07 48.55 224.98 46.66
  L 228.97 44.74
  A 0.34 0.34 0.0 0 1 229.46 45.09
  Q 229.21 47.51 230.65 49.39
  Z"
/>
<path fill="#fcf7fa" d="
  M 240.54 48.65
  Q 238.59 50.46 235.22 49.66
  Q 237.16 47.74 237.24 45.63
  A 0.29 0.29 0.0 0 1 237.71 45.41
  Q 239.15 46.51 240.54 48.65
  Z"
/>
<path fill="#fcf0e4" d="
  M 270.05 46.66
  Q 268.21 50.55 266.61 49.06
  L 267.45 46.11
  A 0.35 0.30 -19.4 0 1 267.54 45.95
  Q 268.37 45.12 270.05 46.66
  Z"
/>
<path fill="#e14f47" d="
  M 224.98 46.66
  Q 226.07 48.55 229.31 49.68
  Q 229.43 50.44 229.39 50.51
  A 0.94 0.85 -57.4 0 1 228.16 50.85
  L 222.66 47.25
  L 224.98 46.66
  Z"
/>
<path fill="#fcf7fa" d="
  M 262.13 48.95
  Q 262.53 51.24 258.05 49.09
  L 260.28 46.76
  A 0.50 0.49 -42.5 0 1 261.02 46.79
  Q 261.64 47.55 262.13 48.95
  Z"
/>
<path fill="#e14f47" d="
  M 287.19 51.16
  L 289.69 57.25
  L 289.29 57.54
  Q 287.00 54.22 287.19 51.16
  Z"
/>
<path fill="#79473a" d="
  M 139.05 138.89
  A 0.21 0.21 0.0 0 1 138.64 138.83
  C 138.95 132.46 142.06 128.51 145.82 123.94
  C 149.00 120.08 154.20 116.83 157.32 114.07
  C 165.99 106.38 171.22 97.08 170.56 85.50
  C 169.79 71.85 167.81 62.64 176.67 53.16
  A 0.22 0.21 42.1 0 1 176.97 53.15
  L 176.98 53.15
  A 0.23 0.23 0.0 0 1 177.00 53.47
  Q 174.20 56.94 173.73 58.05
  C 170.34 65.99 171.39 74.74 172.24 82.74
  C 173.73 96.93 166.97 109.01 155.85 117.34
  Q 151.98 120.24 149.84 122.02
  C 144.14 126.77 141.16 131.53 139.05 138.89
  Z"
/>
<path fill="#fcb9a3" d="
  M 192.51 65.21
  Q 191.77 66.83 193.00 67.39
  Q 193.45 68.14 193.35 68.66
  Q 193.23 69.29 192.34 69.29
  Q 191.59 69.30 190.74 69.01
  L 189.70 68.28
  Q 189.50 67.86 189.43 67.44
  Q 189.35 66.98 189.64 66.61
  Q 191.13 64.77 191.16 62.20
  A 0.86 0.84 -75.0 0 1 192.43 61.45
  Q 192.99 61.78 192.77 62.66
  Q 192.43 63.99 192.51 65.21
  Z"
/>
<path fill="#372020" d="
  M 183.27 62.11
  Q 183.68 66.68 187.91 68.63
  A 1.37 1.36 1.8 0 1 188.61 69.37
  L 189.16 70.80
  A 1.24 1.19 -85.8 0 0 189.65 71.39
  Q 192.00 72.84 194.88 70.52
  Q 196.24 78.28 196.77 85.75
  Q 197.79 99.98 193.62 113.58
  Q 193.28 114.65 191.79 115.59
  Q 185.05 119.35 179.37 124.61
  Q 175.61 125.75 172.49 127.98
  Q 165.18 133.20 160.10 139.62
  Q 157.27 140.18 154.21 142.06
  C 150.54 137.29 153.24 131.16 156.14 126.70
  Q 157.46 124.68 161.84 120.76
  Q 164.02 118.81 168.44 114.67
  Q 179.57 104.28 180.10 88.07
  Q 180.36 79.91 180.59 71.63
  Q 180.74 66.26 183.27 62.11
  Z"
/>
<path fill="#372020" d="
  M 192.51 65.21
  Q 193.58 65.10 193.85 66.12
  Q 194.15 67.22 193.00 67.39
  Q 191.77 66.83 192.51 65.21
  Z"
/>
<path fill="#79473a" d="
  M 189.70 68.28
  L 190.74 69.01
  Q 191.07 69.44 190.97 69.74
  Q 190.80 70.25 190.28 69.98
  Q 189.72 69.67 189.23 68.95
  Q 189.09 68.75 189.24 68.50
  Q 189.37 68.28 189.70 68.28
  Z"
/>
<path fill="#79473a" d="
  M 124.07 113.91
  Q 126.79 107.24 124.93 100.55
  C 123.86 96.73 121.20 91.88 120.13 87.87
  Q 117.64 78.56 121.98 69.31
  A 0.20 0.19 24.4 0 1 122.23 69.22
  L 122.47 69.32
  A 0.07 0.06 -70.2 0 1 122.50 69.40
  Q 117.86 80.32 122.54 91.24
  C 125.52 98.21 127.57 102.06 126.82 108.87
  Q 126.43 112.38 124.47 114.18
  A 0.25 0.25 0.0 0 1 124.07 113.91
  Z"
/>
<path fill="#ed7e69" d="
  M 240.74 108.17
  L 240.43 111.32
  Q 238.20 115.23 235.93 118.71
  Q 233.03 123.16 230.92 124.13
  C 226.45 126.17 221.58 122.77 218.58 119.68
  Q 216.07 117.08 208.04 108.02
  Q 206.32 106.09 204.12 105.23
  A 2.12 2.12 0.0 0 0 201.47 106.22
  C 200.47 108.10 200.59 110.79 199.88 112.65
  Q 199.12 114.68 198.45 117.82
  Q 198.40 118.05 196.66 122.86
  Q 193.97 130.28 195.30 138.49
  A 2.62 2.61 0.0 0 0 197.47 140.65
  C 206.01 142.02 214.69 144.25 220.89 150.76
  A 0.25 0.25 0.0 0 1 220.89 151.11
  A 0.26 0.26 0.0 0 1 220.53 151.13
  Q 215.68 146.98 209.66 144.83
  Q 203.06 142.46 195.88 142.03
  Q 191.56 136.54 189.74 134.51
  Q 188.63 133.27 185.90 131.49
  Q 185.45 128.37 186.64 126.13
  Q 188.52 122.59 191.78 117.86
  Q 193.16 115.87 191.79 115.59
  Q 193.28 114.65 193.62 113.58
  Q 197.79 99.98 196.77 85.75
  Q 196.24 78.28 194.88 70.52
  Q 195.43 69.42 196.68 69.80
  A 1.00 0.99 89.4 0 1 197.34 70.45
  Q 199.79 78.13 201.72 81.55
  C 206.69 90.39 215.23 94.68 222.78 99.97
  Q 227.58 103.34 240.74 108.17
  Z"
/>
<path fill="#e14f47" d="
  M 237.30 82.91
  C 241.00 84.19 244.63 81.87 249.55 79.82
  Q 250.58 79.40 253.99 79.35
  C 258.03 79.29 260.17 78.97 261.88 82.58
  A 0.91 0.90 54.5 0 1 261.71 83.60
  Q 260.46 84.89 259.97 86.97
  C 259.18 90.34 257.36 92.01 253.88 92.63
  Q 248.00 93.68 243.49 89.76
  Q 240.49 87.16 236.78 83.79
  A 0.52 0.52 0.0 0 1 237.30 82.91
  Z"
/>
<path fill="#372020" d="
  M 115.42 138.82
  Q 117.94 129.68 123.11 124.62
  Q 127.15 120.65 131.08 116.59
  C 134.32 113.25 134.49 110.21 134.23 105.46
  L 135.61 111.11
  A 0.70 0.70 0.0 0 0 136.82 111.41
  C 141.35 106.29 143.73 100.56 141.26 93.65
  Q 138.97 87.26 137.88 81.93
  A 0.36 0.36 0.0 0 1 138.13 81.52
  L 138.25 81.48
  A 0.36 0.35 -17.6 0 1 138.68 81.70
  C 142.39 92.00 146.93 100.72 139.39 110.58
  Q 135.93 115.10 129.58 123.79
  Q 126.81 127.59 123.69 135.00
  A 0.30 0.29 19.4 0 1 123.33 135.17
  L 122.84 134.60
  A 0.04 0.03 38.0 0 1 122.83 134.56
  L 126.99 124.79
  A 0.42 0.42 0.0 0 0 126.32 124.32
  C 121.74 128.44 119.44 134.06 115.42 138.82
  Z"
/>
<path fill="#fcb9a3" d="
  M 134.23 105.46
  C 134.49 110.21 134.32 113.25 131.08 116.59
  Q 127.15 120.65 123.11 124.62
  Q 117.94 129.68 115.42 138.82
  C 112.91 146.03 114.68 152.90 117.89 159.82
  L 114.77 162.36
  Q 104.81 148.89 113.62 134.86
  Q 116.15 130.82 118.80 128.05
  C 125.07 121.50 130.23 116.67 132.12 108.33
  L 132.38 100.31
  A 0.23 0.23 0.0 0 1 132.83 100.26
  L 134.23 105.46
  Z"
/>
<path fill="#372020" d="
  M 132.12 108.33
  C 130.23 116.67 125.07 121.50 118.80 128.05
  Q 116.15 130.82 113.62 134.86
  Q 104.81 148.89 114.77 162.36
  L 114.03 163.56
  Q 102.47 147.58 113.58 132.37
  Q 116.95 127.77 121.74 123.07
  Q 125.97 118.91 127.47 116.29
  Q 129.68 112.43 130.79 108.03
  Q 131.38 106.23 131.11 104.20
  A 0.24 0.23 -19.7 0 1 131.22 103.97
  L 131.60 103.71
  A 0.19 0.19 0.0 0 1 131.89 103.86
  L 132.12 108.33
  Z"
/>
<path fill="#fba88b" d="
  M 240.43 111.32
  Q 240.92 114.32 240.88 118.27
  Q 240.88 119.00 241.71 119.65
  Q 241.04 119.85 241.36 120.77
  C 242.96 125.47 246.53 128.95 247.61 134.31
  L 246.78 137.19
  Q 244.53 140.02 243.15 143.26
  C 238.59 153.99 232.70 164.27 226.59 174.35
  Q 226.56 174.39 225.08 177.43
  A 0.39 0.38 -51.1 0 1 224.43 177.50
  L 195.88 142.03
  Q 203.06 142.46 209.66 144.83
  Q 215.68 146.98 220.53 151.13
  A 0.26 0.26 0.0 0 0 220.89 151.11
  A 0.25 0.25 0.0 0 0 220.89 150.76
  C 214.69 144.25 206.01 142.02 197.47 140.65
  A 2.62 2.61 0.0 0 1 195.30 138.49
  Q 193.97 130.28 196.66 122.86
  Q 198.40 118.05 198.45 117.82
  Q 199.12 114.68 199.88 112.65
  C 200.59 110.79 200.47 108.10 201.47 106.22
  A 2.12 2.12 0.0 0 1 204.12 105.23
  Q 206.32 106.09 208.04 108.02
  Q 216.07 117.08 218.58 119.68
  C 221.58 122.77 226.45 126.17 230.92 124.13
  Q 233.03 123.16 235.93 118.71
  Q 238.20 115.23 240.43 111.32
  Z"
/>
<path fill="#fcb9a3" d="
  M 291.94 139.83
  A 0.36 0.36 0.0 0 1 291.24 139.72
  Q 291.15 136.51 292.24 133.77
  C 293.41 130.83 298.16 125.24 301.61 121.59
  Q 307.55 115.30 309.52 106.52
  A 0.23 0.23 0.0 0 1 309.97 106.57
  Q 309.82 113.35 307.04 119.25
  C 304.68 124.25 301.27 127.60 297.11 132.08
  Q 293.28 136.20 291.94 139.83
  Z"
/>
<path fill="#fcf0e4" d="
  M 191.79 115.59
  Q 193.16 115.87 191.78 117.86
  Q 188.52 122.59 186.64 126.13
  Q 185.45 128.37 185.90 131.49
  Q 186.31 143.90 189.00 156.06
  L 189.33 158.09
  Q 194.82 181.53 201.04 204.55
  C 203.16 212.42 204.79 220.32 206.58 228.22
  Q 208.05 234.73 208.84 249.00
  L 172.50 249.00
  Q 176.00 236.24 176.83 229.00
  Q 177.72 221.29 178.22 198.79
  Q 180.58 188.11 175.71 177.71
  Q 173.01 171.95 167.67 169.34
  Q 164.03 167.56 160.22 166.28
  A 1.37 1.37 0.0 0 1 159.31 165.22
  Q 158.15 158.61 159.41 152.63
  C 160.19 148.91 161.90 146.37 164.26 141.75
  Q 166.46 137.46 171.08 134.07
  A 4.63 4.44 -3.5 0 0 172.26 132.79
  Q 175.12 128.08 179.37 124.61
  Q 185.05 119.35 191.79 115.59
  Z
  M 182.17 248.94
  L 182.88 248.74
  A 0.20 0.20 0.0 0 0 183.02 248.49
  L 179.65 236.33
  A 6.00 0.51 74.5 0 0 177.55 230.69
  L 177.44 230.72
  A 6.00 0.51 74.5 0 0 178.55 236.64
  L 181.92 248.80
  A 0.20 0.20 0.0 0 0 182.17 248.94
  Z"
/>
<path fill="#fcf0e4" d="
  M 241.71 119.65
  Q 248.29 122.60 253.84 127.46
  Q 264.18 139.48 271.38 153.80
  Q 275.76 162.49 277.00 167.49
  C 278.82 174.86 280.55 183.76 281.15 192.77
  Q 282.20 208.49 281.45 224.09
  Q 282.45 225.06 282.02 226.05
  Q 281.68 226.84 280.30 227.16
  Q 274.16 228.59 271.63 234.73
  Q 270.87 236.57 271.33 240.38
  Q 272.05 246.48 276.99 249.00
  L 251.54 249.00
  Q 254.98 204.24 252.00 159.50
  Q 251.53 152.36 248.87 138.22
  Q 248.70 137.36 247.61 134.31
  C 246.53 128.95 242.96 125.47 241.36 120.77
  Q 241.04 119.85 241.71 119.65
  Z"
/>
<path fill="#1a2b33" d="
  M 179.37 124.61
  Q 175.12 128.08 172.26 132.79
  A 4.63 4.44 -3.5 0 1 171.08 134.07
  Q 166.46 137.46 164.26 141.75
  C 161.90 146.37 160.19 148.91 159.41 152.63
  Q 158.15 158.61 159.31 165.22
  A 1.37 1.37 0.0 0 0 160.22 166.28
  Q 164.03 167.56 167.67 169.34
  Q 173.01 171.95 175.71 177.71
  Q 180.58 188.11 178.22 198.79
  L 174.72 199.16
  L 172.83 182.87
  A 3.07 2.96 32.7 0 0 172.65 182.11
  C 170.27 175.86 164.79 171.60 157.80 172.70
  C 151.87 173.63 147.48 177.89 145.92 183.35
  Q 145.39 185.20 145.80 191.71
  Q 146.15 197.24 145.43 202.52
  Q 143.56 202.23 142.47 202.82
  Q 138.74 192.53 141.71 181.45
  C 143.42 175.08 146.90 172.34 151.79 168.65
  A 2.94 2.93 73.9 0 0 152.95 166.55
  C 153.81 156.47 154.83 148.21 160.10 139.62
  Q 165.18 133.20 172.49 127.98
  Q 175.61 125.75 179.37 124.61
  Z"
/>
<path fill="#1a2b33" d="
  M 265.70 136.06
  Q 265.78 136.18 265.87 136.29
  Q 265.86 136.53 265.92 136.79
  Q 265.98 137.02 266.17 137.23
  Q 269.32 140.58 271.17 143.58
  Q 281.45 160.27 284.35 180.54
  Q 287.35 201.46 286.12 222.74
  Q 285.19 224.58 281.45 224.09
  Q 282.20 208.49 281.15 192.77
  C 280.55 183.76 278.82 174.86 277.00 167.49
  Q 275.76 162.49 271.38 153.80
  Q 264.18 139.48 253.84 127.46
  C 258.62 129.43 262.11 132.36 265.70 136.06
  Z"
/>
<path fill="#77acac" d="
  M 195.88 142.03
  L 224.43 177.50
  A 0.39 0.38 -51.1 0 0 225.08 177.43
  Q 226.56 174.39 226.59 174.35
  C 232.70 164.27 238.59 153.99 243.15 143.26
  Q 244.53 140.02 246.78 137.19
  Q 248.28 145.96 249.40 155.23
  Q 249.86 158.98 249.19 160.51
  Q 245.87 168.12 228.70 201.22
  A 0.17 0.17 0.0 0 0 228.77 201.45
  L 229.01 201.56
  A 0.40 0.40 0.0 0 0 229.53 201.41
  Q 238.18 187.04 247.09 167.61
  Q 247.51 166.70 249.16 163.75
  A 0.64 0.64 0.0 0 1 250.35 164.03
  Q 250.50 166.93 250.43 170.24
  Q 250.22 178.98 248.40 202.72
  Q 247.26 217.52 244.60 235.64
  Q 244.22 238.16 243.28 242.33
  Q 242.53 245.64 241.97 249.00
  L 208.84 249.00
  Q 208.05 234.73 206.58 228.22
  C 204.79 220.32 203.16 212.42 201.04 204.55
  Q 194.82 181.53 189.33 158.09
  Q 190.55 159.60 191.39 159.69
  A 0.49 0.48 73.6 0 1 191.73 159.88
  Q 197.96 168.04 202.31 174.29
  C 204.06 176.81 206.44 179.33 208.07 181.25
  C 209.73 183.23 211.31 185.92 213.44 187.93
  A 1.45 1.35 -88.0 0 1 213.57 188.08
  L 224.61 204.40
  A 0.49 0.49 0.0 0 0 225.26 204.56
  L 225.27 204.55
  A 0.44 0.44 0.0 0 0 225.44 203.93
  Q 218.56 192.44 214.00 186.73
  Q 200.87 170.25 189.58 155.04
  A 0.30 0.29 -61.6 0 0 189.05 155.20
  L 189.00 156.06
  Q 186.31 143.90 185.90 131.49
  Q 188.63 133.27 189.74 134.51
  Q 191.56 136.54 195.88 142.03
  Z"
/>
<path fill="#578f8d" d="
  M 251.54 249.00
  L 241.97 249.00
  Q 242.53 245.64 243.28 242.33
  Q 244.22 238.16 244.60 235.64
  Q 247.26 217.52 248.40 202.72
  Q 250.22 178.98 250.43 170.24
  Q 250.50 166.93 250.35 164.03
  A 0.64 0.64 0.0 0 0 249.16 163.75
  Q 247.51 166.70 247.09 167.61
  Q 238.18 187.04 229.53 201.41
  A 0.40 0.40 0.0 0 1 229.01 201.56
  L 228.77 201.45
  A 0.17 0.17 0.0 0 1 228.70 201.22
  Q 245.87 168.12 249.19 160.51
  Q 249.86 158.98 249.40 155.23
  Q 248.28 145.96 246.78 137.19
  L 247.61 134.31
  Q 248.70 137.36 248.87 138.22
  Q 251.53 152.36 252.00 159.50
  Q 254.98 204.24 251.54 249.00
  Z"
/>
<path fill="#578f8d" d="
  M 189.33 158.09
  L 189.00 156.06
  L 189.05 155.20
  A 0.30 0.29 -61.6 0 1 189.58 155.04
  Q 200.87 170.25 214.00 186.73
  Q 218.56 192.44 225.44 203.93
  A 0.44 0.44 0.0 0 1 225.27 204.55
  L 225.26 204.56
  A 0.49 0.49 0.0 0 1 224.61 204.40
  L 213.57 188.08
  A 1.45 1.35 -88.0 0 0 213.44 187.93
  C 211.31 185.92 209.73 183.23 208.07 181.25
  C 206.44 179.33 204.06 176.81 202.31 174.29
  Q 197.96 168.04 191.73 159.88
  A 0.49 0.48 73.6 0 0 191.39 159.69
  Q 190.55 159.60 189.33 158.09
  Z"
/>
<path fill="#fcb9a3" d="
  M 301.85 249.00
  L 299.81 249.00
  L 300.99 226.17
  A 0.35 0.34 -1.4 0 0 300.61 225.81
  L 291.28 226.71
  A 0.27 0.26 -56.2 0 1 291.18 226.19
  Q 295.09 224.95 300.21 224.75
  A 0.66 0.65 1.0 0 0 300.83 224.16
  Q 303.59 196.12 308.40 167.94
  A 0.18 0.18 0.0 0 1 308.59 167.78
  L 308.65 167.79
  A 0.27 0.27 0.0 0 1 308.90 168.06
  Q 308.82 170.13 308.59 172.40
  C 306.99 187.86 304.44 203.04 303.41 219.60
  Q 302.50 234.30 301.85 249.00
  Z"
/>
<path fill="#fcb9a3" d="
  M 138.21 249.00
  L 136.47 249.00
  Q 135.54 233.25 134.02 217.55
  Q 132.91 206.20 131.18 199.12
  C 128.52 188.20 126.00 179.16 120.75 169.40
  A 0.26 0.26 0.0 0 1 120.84 169.06
  L 120.85 169.06
  A 0.26 0.26 0.0 0 1 121.21 169.14
  Q 124.80 174.70 125.19 175.80
  C 130.12 189.66 132.97 198.11 134.63 210.88
  Q 137.16 230.43 138.52 244.53
  Q 138.55 244.86 138.93 246.97
  Q 139.29 248.97 138.21 249.00
  Z"
/>
<path fill="#fcf0e4" d="
  M 174.72 199.16
  Q 175.78 209.61 174.10 218.64
  Q 173.86 219.95 173.94 220.95
  Q 174.13 223.10 174.13 223.24
  Q 173.29 236.42 169.15 249.00
  L 158.66 249.00
  Q 151.54 235.27 148.03 219.23
  Q 145.96 209.75 145.43 202.52
  Q 146.15 197.24 145.80 191.71
  Q 145.39 185.20 145.92 183.35
  C 147.48 177.89 151.87 173.63 157.80 172.70
  C 164.79 171.60 170.27 175.86 172.65 182.11
  A 3.07 2.96 32.7 0 1 172.83 182.87
  L 174.72 199.16
  Z
  M 168.89 182.79
  L 163.50 189.08
  A 2.31 2.29 61.2 0 0 162.97 190.93
  Q 163.55 194.62 164.84 197.95
  Q 166.78 202.98 172.76 218.62
  A 0.39 0.39 0.0 0 0 173.51 218.47
  Q 173.49 216.76 173.02 215.50
  Q 169.02 204.67 164.92 194.23
  A 4.17 3.99 -73.5 0 0 164.55 193.51
  Q 163.63 192.11 163.89 190.30
  A 1.20 1.15 70.4 0 1 164.15 189.72
  L 169.72 183.23
  A 0.13 0.13 0.0 0 0 169.71 183.04
  L 169.37 182.75
  A 0.34 0.34 0.0 0 0 168.89 182.79
  Z"
/>
<path fill="#fcb9a3" d="
  M 168.89 182.79
  A 0.34 0.34 0.0 0 1 169.37 182.75
  L 169.71 183.04
  A 0.13 0.13 0.0 0 1 169.72 183.23
  L 164.15 189.72
  A 1.20 1.15 70.4 0 0 163.89 190.30
  Q 163.63 192.11 164.55 193.51
  A 4.17 3.99 -73.5 0 1 164.92 194.23
  Q 169.02 204.67 173.02 215.50
  Q 173.49 216.76 173.51 218.47
  A 0.39 0.39 0.0 0 1 172.76 218.62
  Q 166.78 202.98 164.84 197.95
  Q 163.55 194.62 162.97 190.93
  A 2.31 2.29 61.2 0 1 163.50 189.08
  L 168.89 182.79
  Z"
/>
<path fill="#afaca4" d="
  M 178.22 198.79
  Q 177.72 221.29 176.83 229.00
  Q 176.00 236.24 172.50 249.00
  L 169.15 249.00
  Q 173.29 236.42 174.13 223.24
  Q 174.13 223.10 173.94 220.95
  Q 173.86 219.95 174.10 218.64
  Q 175.78 209.61 174.72 199.16
  L 178.22 198.79
  Z"
/>
<path fill="#afaca4" d="
  M 145.43 202.52
  Q 145.96 209.75 148.03 219.23
  Q 151.54 235.27 158.66 249.00
  L 155.05 249.00
  C 152.75 243.96 150.39 239.02 148.86 233.76
  Q 144.41 218.52 142.47 202.82
  Q 143.56 202.23 145.43 202.52
  Z"
/>
<path fill="#afaca4" d="
  M 286.12 222.74
  Q 286.43 223.43 285.79 224.83
  A 2.19 2.18 -62.3 0 0 286.64 227.60
  Q 301.62 236.73 289.33 249.00
  L 276.99 249.00
  Q 272.05 246.48 271.33 240.38
  Q 270.87 236.57 271.63 234.73
  Q 274.16 228.59 280.30 227.16
  Q 281.68 226.84 282.02 226.05
  Q 282.45 225.06 281.45 224.09
  Q 285.19 224.58 286.12 222.74
  Z
  M 286.5396 231.1307
  A 7.76 7.41 -67.5 0 0 276.7241 235.4643
  A 7.76 7.41 -67.5 0 0 280.6004 245.4693
  A 7.76 7.41 -67.5 0 0 290.4159 241.1357
  A 7.76 7.41 -67.5 0 0 286.5396 231.1307
  Z"
/>
<path fill="#afaca4" d="
  M 182.17 248.94
  A 0.20 0.20 0.0 0 1 181.92 248.80
  L 178.55 236.64
  A 6.00 0.51 74.5 0 1 177.44 230.72
  L 177.55 230.69
  A 6.00 0.51 74.5 0 1 179.65 236.33
  L 183.02 248.49
  A 0.20 0.20 0.0 0 1 182.88 248.74
  L 182.17 248.94
  Z"
/>
<path fill="#55302d" d="
  M 286.5396 231.1307
  A 7.76 7.41 -67.5 0 1 290.4159 241.1357
  A 7.76 7.41 -67.5 0 1 280.6004 245.4693
  A 7.76 7.41 -67.5 0 1 276.7241 235.4643
  A 7.76 7.41 -67.5 0 1 286.5396 231.1307
  Z
  M 286.1383 232.6093
  A 6.14 5.78 -66.5 0 0 278.3894 235.9352
  A 6.14 5.78 -66.5 0 0 281.2417 243.8707
  A 6.14 5.78 -66.5 0 0 288.9906 240.5448
  A 6.14 5.78 -66.5 0 0 286.1383 232.6093
  Z"
/>
<ellipse fill="#afaca4" cx="0.00" cy="0.00" transform="translate(283.69,238.24) rotate(-66.5)" rx="6.14" ry="5.78"/>
</svg>
