<?xml version="1.0" encoding="UTF-8" standalone="no"?>
<!DOCTYPE svg PUBLIC "-//W3C//DTD SVG 1.1//EN" "http://www.w3.org/Graphics/SVG/1.1/DTD/svg11.dtd">
<svg xmlns="http://www.w3.org/2000/svg" version="1.1" viewBox="0.00 0.00 444.00 250.00">
<g stroke-width="2.00" fill="none" stroke-linecap="butt">
<path stroke="#d9cbc1" vector-effect="non-scaling-stroke" d="
  M 349.26 250.00
  L 345.75 249.50"
/>
<path stroke="#f1efed" vector-effect="non-scaling-stroke" d="
  M 345.75 249.50
  C 354.79 242.84 360.69 235.64 363.02 224.45
  Q 365.04 214.73 365.48 204.48
  Q 367.28 162.48 367.77 142.81
  Q 369.05 92.33 367.62 40.77
  Q 367.12 22.87 361.12 6.44
  A 0.79 0.79 0.0 0 0 360.43 5.93
  L 340.71 4.80"
/>
<path stroke="#d9cbc1" vector-effect="non-scaling-stroke" d="
  M 340.71 4.80
  L 338.00 4.82"
/>
<path stroke="#c9bbb1" vector-effect="non-scaling-stroke" d="
  M 338.00 4.82
  L 332.71 4.71"
/>
<path stroke="#f2e9df" vector-effect="non-scaling-stroke" d="
  M 332.71 4.71
  L 325.64 4.73
  A 0.52 0.52 0.0 0 0 325.12 5.25
  L 325.07 250.00"
/>
<path stroke="#f7ede5" vector-effect="non-scaling-stroke" d="
  M 313.25 250.00
  Q 313.52 247.46 312.92 246.21"
/>
<path stroke="#f8e6dd" vector-effect="non-scaling-stroke" d="
  M 312.92 246.21
  L 313.32 5.64
  A 1.30 1.29 89.1 0 0 311.99 4.34
  Q 293.09 4.91 274.75 4.90
  Q 202.75 4.85 130.80 4.72"
/>
<path stroke="#f1efed" vector-effect="non-scaling-stroke" d="
  M 130.80 4.72
  Q 123.79 5.31 116.26 4.40"
/>
<path stroke="#f2e9df" vector-effect="non-scaling-stroke" d="
  M 116.26 4.40
  L 110.84 4.67
  A 0.98 0.97 88.8 0 0 109.91 5.65
  L 109.91 250.00"
/>
<path stroke="#f1e3da" vector-effect="non-scaling-stroke" d="
  M 130.80 4.72
  Q 130.52 11.12 130.54 16.54
  Q 130.63 54.88 130.65 91.25
  Q 130.66 96.77 130.62 102.25
  Q 130.37 137.90 130.81 173.00
  Q 131.05 191.52 130.93 211.50
  Q 130.82 230.75 130.97 250.00"
/>
<path stroke="#d2c8be" vector-effect="non-scaling-stroke" d="
  M 119.98 250.00
  L 122.52 249.29"
/>
<path stroke="#ead3c3" vector-effect="non-scaling-stroke" d="
  M 122.52 249.29
  C 123.41 236.18 122.54 219.07 122.64 210.19
  Q 122.85 192.07 122.74 188.54
  C 122.60 183.55 121.99 177.14 122.07 171.48
  Q 122.35 152.38 121.72 133.28"
/>
<path stroke="#c2b8ae" vector-effect="non-scaling-stroke" d="
  M 121.72 133.28
  L 121.79 126.80"
/>
<path stroke="#d2c8be" vector-effect="non-scaling-stroke" d="
  M 121.79 126.80
  C 121.93 109.94 122.30 93.08 122.27 76.24
  Q 122.24 54.64 122.38 40.92
  C 122.48 31.72 123.35 20.15 123.37 12.06
  Q 123.37 9.05 121.97 5.11"
/>
<path stroke="#c2b8ae" vector-effect="non-scaling-stroke" d="
  M 121.97 5.11
  L 117.57 4.70"
/>
<path stroke="#ebe6dc" vector-effect="non-scaling-stroke" d="
  M 117.57 4.70
  Q 116.91 4.79 116.26 4.40"
/>
<path stroke="#f8e1d2" vector-effect="non-scaling-stroke" d="
  M 312.92 246.21
  Q 309.94 240.75 307.12 235.41
  Q 303.42 228.40 300.82 224.91
  C 294.54 216.50 287.08 210.68 278.80 202.96
  Q 270.89 195.59 268.42 185.81"
/>
<path stroke="#b3907e" vector-effect="non-scaling-stroke" d="
  M 268.42 185.81
  Q 270.78 186.12 272.70 185.63
  A 0.29 0.29 0.0 0 0 272.75 185.08
  C 268.39 183.22 263.94 172.86 265.88 168.14
  Q 265.58 170.35 265.72 171.72
  Q 266.09 175.33 271.23 182.22
  A 0.19 0.18 56.3 0 0 271.47 182.27
  L 271.70 182.14
  A 0.26 0.26 0.0 0 0 271.78 181.76
  Q 266.96 175.25 270.41 167.30
  A 0.47 0.47 0.0 0 1 271.30 167.58
  Q 270.16 172.85 271.82 178.89
  Q 271.87 179.08 273.18 180.76
  A 0.21 0.21 0.0 0 0 273.56 180.63
  L 273.56 175.09
  A 2.89 2.88 69.5 0 1 274.54 172.92
  C 278.96 169.05 284.24 165.77 283.02 158.78"
/>
<path stroke="#cfa898" vector-effect="non-scaling-stroke" d="
  M 283.02 158.78
  Q 282.93 157.04 283.57 157.53"
/>
<path stroke="#b3907e" vector-effect="non-scaling-stroke" d="
  M 283.57 157.53
  C 286.27 162.86 287.22 168.56 282.54 173.12
  Q 278.72 176.84 275.85 178.78
  A 0.37 0.37 0.0 0 0 275.90 179.43
  Q 276.20 179.56 276.64 179.35
  C 282.77 176.48 288.20 171.16 287.34 163.99
  C 286.99 161.12 284.42 156.72 283.05 153.33"
/>
<path stroke="#cfa898" vector-effect="non-scaling-stroke" d="
  M 283.05 153.33
  Q 282.93 149.93 284.03 146.86"
/>
<path stroke="#b3907e" vector-effect="non-scaling-stroke" d="
  M 284.03 146.86
  C 287.90 142.44 292.46 138.32 293.98 132.77
  Q 295.91 125.72 290.67 120.67
  Q 289.61 119.66 283.13 113.91
  C 278.81 110.08 278.45 105.84 279.27 99.82
  C 281.35 84.57 281.81 74.33 267.75 65.73
  C 261.08 61.65 253.86 57.78 251.14 50.47
  Q 249.56 46.24 249.05 45.49
  C 245.63 40.42 241.68 35.91 237.32 31.80
  Q 234.55 29.19 228.26 25.46
  Q 222.81 22.23 217.85 22.05
  Q 211.83 21.84 207.36 23.04
  A 7.36 7.24 22.0 0 0 205.60 23.77
  C 201.78 25.96 199.42 28.57 196.04 30.18
  A 3.89 3.71 -77.3 0 0 195.26 30.70
  Q 187.91 37.12 182.65 44.79
  A 1.79 1.64 -24.1 0 0 182.39 45.39
  L 180.25 54.43"
/>
<path stroke="#f8e1d2" vector-effect="non-scaling-stroke" d="
  M 180.25 54.43
  C 176.27 57.83 173.70 63.72 172.09 68.59
  C 167.10 83.68 166.59 101.99 175.19 116.05
  C 178.64 121.68 183.05 128.79 188.50 133.25"
/>
<path stroke="#cfa898" vector-effect="non-scaling-stroke" d="
  M 188.50 133.25
  Q 184.16 138.55 186.36 146.35"
/>
<path stroke="#f1cab3" vector-effect="non-scaling-stroke" d="
  M 186.36 146.35
  Q 186.58 147.08 185.50 147.19
  Q 177.01 148.06 173.51 155.54
  Q 172.26 158.20 173.37 163.38"
/>
<path stroke="#cfa898" vector-effect="non-scaling-stroke" d="
  M 173.37 163.38
  C 166.23 167.11 160.46 173.52 156.00 179.74
  Q 148.51 190.19 148.42 202.55
  C 148.36 211.45 152.00 220.16 157.04 227.61"
/>
<path stroke="#f1cab3" vector-effect="non-scaling-stroke" d="
  M 157.04 227.61
  Q 158.19 229.48 158.78 231.70
  C 159.59 234.76 160.33 236.55 162.26 238.33
  Q 163.90 239.84 168.25 241.69
  Q 170.98 242.85 173.47 243.75"
/>
<path stroke="#cfa898" vector-effect="non-scaling-stroke" d="
  M 173.47 243.75
  L 173.76 250.00"
/>
<path stroke="#c3b29f" vector-effect="non-scaling-stroke" d="
  M 117.57 4.70
  Q 118.64 106.99 118.35 142.00
  Q 117.95 190.85 117.81 240.13"
/>
<path stroke="#d3c2b0" vector-effect="non-scaling-stroke" d="
  M 117.81 240.13
  L 117.53 250.00"
/>
<path stroke="#c3b29f" vector-effect="non-scaling-stroke" d="
  M 332.71 4.71
  L 332.72 19.71"
/>
<path stroke="#c9ab99" vector-effect="non-scaling-stroke" d="
  M 332.72 19.71
  L 332.76 250.00"
/>
<path stroke="#aa9482" vector-effect="non-scaling-stroke" d="
  M 121.97 5.11
  Q 121.41 10.13 121.41 11.55
  Q 121.32 47.03 121.62 82.50
  Q 121.76 99.50 121.51 116.50
  Q 121.44 121.66 121.79 126.80"
/>
<path stroke="#c29e87" vector-effect="non-scaling-stroke" d="
  M 121.72 133.28
  L 120.93 194.45"
/>
<path stroke="#aa9482" vector-effect="non-scaling-stroke" d="
  M 120.93 194.45
  Q 120.66 206.59 120.81 218.74
  Q 120.91 225.93 117.81 240.13"
/>
<path stroke="#aa9482" vector-effect="non-scaling-stroke" d="
  M 338.00 4.82
  Q 338.90 14.82 338.89 22.04
  Q 338.82 55.39 338.89 88.73
  C 338.99 139.70 338.73 196.20 339.25 250.00"
/>
<path stroke="#a07d6b" vector-effect="non-scaling-stroke" d="
  M 333.83 250.00
  L 333.92 14.21
  A 0.37 0.36 -0.0 0 0 333.55 13.85
  L 333.25 13.85
  A 0.26 0.25 1.1 0 0 332.99 14.09
  L 332.72 19.71"
/>
<path stroke="#d2c8be" vector-effect="non-scaling-stroke" d="
  M 340.71 4.80
  Q 343.68 4.89 345.27 6.77"
/>
<path stroke="#d2af97" vector-effect="non-scaling-stroke" d="
  M 345.27 6.77
  C 345.37 14.52 344.79 23.05 344.81 29.98
  Q 344.89 79.08 344.65 128.00
  C 344.48 163.26 344.70 198.52 344.64 233.67
  C 344.63 237.01 344.97 240.38 345.28 243.71"
/>
<path stroke="#d3c2b0" vector-effect="non-scaling-stroke" d="
  M 345.28 243.71
  L 343.55 249.09
  A 0.22 0.21 -10.8 0 0 343.89 249.32
  Q 344.84 248.56 345.38 247.41
  Q 345.13 248.59 344.22 249.17
  A 0.30 0.30 0.0 0 0 344.45 249.72
  L 345.22 249.53"
/>
<path stroke="#d2c8be" vector-effect="non-scaling-stroke" d="
  M 345.22 249.53
  L 345.75 249.50"
/>
<path stroke="#ebe6dc" vector-effect="non-scaling-stroke" d="
  M 345.22 249.53
  C 352.53 235.19 352.94 221.15 353.04 205.11
  Q 353.56 118.95 353.25 50.78
  C 353.18 34.69 352.93 21.36 345.98 7.33"
/>
<path stroke="#ead3c3" vector-effect="non-scaling-stroke" d="
  M 345.98 7.33
  Q 345.74 6.87 345.27 6.77"
/>
<path stroke="#ebcdb5" vector-effect="non-scaling-stroke" d="
  M 345.98 7.33
  L 345.28 243.71"
/>
<path stroke="#8a5e4b" vector-effect="non-scaling-stroke" d="
  M 284.03 146.86
  Q 283.13 145.61 285.56 142.58"
/>
<path stroke="#ac7f67" vector-effect="non-scaling-stroke" d="
  M 285.56 142.58
  C 292.10 136.30 292.07 126.57 285.82 120.37
  Q 285.67 120.23 285.48 120.27
  A 0.17 0.17 0.0 0 0 285.37 120.53
  Q 293.28 131.62 284.96 142.58"
/>
<path stroke="#8a5e4b" vector-effect="non-scaling-stroke" d="
  M 284.96 142.58
  Q 281.14 146.34 281.04 149.32
  Q 280.83 155.04 280.31 160.82"
/>
<path stroke="#ac7f67" vector-effect="non-scaling-stroke" d="
  M 280.31 160.82
  Q 279.49 164.54 277.45 167.72
  A 0.28 0.27 -55.0 0 0 277.51 168.08
  L 277.52 168.09
  A 0.26 0.26 0.0 0 0 277.88 168.05
  Q 280.72 164.92 281.50 160.71"
/>
<path stroke="#8a5e4b" vector-effect="non-scaling-stroke" d="
  M 281.50 160.71
  L 283.02 158.78"
/>
<path stroke="#b39686" vector-effect="non-scaling-stroke" d="
  M 268.42 185.81
  L 262.26 178.98"
/>
<path stroke="#ac7f67" vector-effect="non-scaling-stroke" d="
  M 262.26 178.98
  Q 261.73 177.07 261.81 175.99
  Q 263.09 159.16 265.15 142.89
  C 266.03 135.96 266.34 129.50 265.79 123.26
  C 264.92 113.53 260.79 99.16 247.80 101.44"
/>
<path stroke="#8a5e4b" vector-effect="non-scaling-stroke" d="
  M 247.80 101.44
  L 239.08 103.30"
/>
<path stroke="#ac7f67" vector-effect="non-scaling-stroke" d="
  M 239.08 103.30
  Q 228.87 104.09 222.80 97.30"
/>
<path stroke="#ad937f" vector-effect="non-scaling-stroke" d="
  M 222.80 97.30
  L 217.78 89.13
  A 0.34 0.34 0.0 0 0 217.15 89.34
  L 217.61 93.25
  A 3.63 3.63 0.0 0 0 218.86 95.58
  L 222.47 98.60"
/>
<path stroke="#ac7f67" vector-effect="non-scaling-stroke" d="
  M 222.47 98.60
  L 223.72 100.06"
/>
<path stroke="#8a5e4b" vector-effect="non-scaling-stroke" d="
  M 223.72 100.06
  Q 223.99 100.98 223.17 101.04"
/>
<path stroke="#b39686" vector-effect="non-scaling-stroke" d="
  M 223.17 101.04
  Q 217.95 98.49 214.78 92.89"
/>
<path stroke="#ac7f67" vector-effect="non-scaling-stroke" d="
  M 214.78 92.89
  Q 211.51 87.09 213.43 80.09
  C 214.56 76.02 216.51 69.05 211.09 67.73
  Q 206.01 66.48 203.05 66.72
  A 1.54 1.50 -68.8 0 0 202.10 67.15
  Q 200.10 69.16 198.45 70.10
  A 0.66 0.66 0.0 0 1 197.63 69.08
  Q 199.11 67.43 201.91 66.56
  A 0.36 0.36 0.0 0 0 201.98 65.91
  L 197.06 63.08
  A 1.64 1.62 45.4 0 0 195.46 63.06
  L 192.57 64.67
  A 0.63 0.62 69.9 0 1 191.66 64.24
  L 191.62 63.94
  A 0.69 0.68 71.0 0 1 191.95 63.26
  L 194.94 61.54
  A 0.60 0.59 54.5 0 0 195.09 60.63
  Q 190.60 55.58 186.86 48.74
  A 0.42 0.41 35.9 0 0 186.09 48.86
  Q 183.91 60.25 191.20 67.93
  A 2.16 2.15 -67.6 0 1 191.79 69.36
  Q 191.83 70.69 192.79 72.20"
/>
<path stroke="#b39686" vector-effect="non-scaling-stroke" d="
  M 192.79 72.20
  C 184.27 69.50 180.73 62.84 180.25 54.43"
/>
<path stroke="#8a5e4b" vector-effect="non-scaling-stroke" d="
  M 237.55 87.90
  A 0.31 0.31 0.0 0 0 237.66 87.47
  Q 235.48 84.09 235.45 82.33
  Q 235.33 76.24 235.28 70.94
  C 235.22 63.56 228.31 56.73 221.43 55.05
  Q 219.91 54.68 213.53 53.69
  Q 207.30 52.73 202.55 47.52
  A 0.08 0.07 48.6 0 0 202.47 47.51
  L 202.25 47.64
  A 0.34 0.33 57.4 0 0 202.15 48.12
  C 206.45 54.24 212.38 54.63 220.27 56.24
  Q 231.93 58.60 233.98 69.21
  C 234.63 72.55 234.11 78.11 234.20 81.22
  Q 234.29 84.34 237.03 88.00
  A 0.20 0.20 0.0 0 0 237.29 88.05
  L 237.55 87.90"
/>
<path stroke="#b3907e" vector-effect="non-scaling-stroke" d="
  M 257.42 60.80
  Q 260.04 64.16 262.12 65.65
  Q 266.59 68.87 268.98 70.43
  C 273.76 73.54 277.69 78.29 278.49 83.60
  A 0.20 0.20 0.0 0 0 278.88 83.64
  Q 279.17 82.85 278.88 81.59
  Q 276.82 72.68 268.93 67.89
  Q 261.52 63.40 257.54 60.67
  A 0.09 0.09 0.0 0 0 257.42 60.80"
/>
<path stroke="#b3907e" vector-effect="non-scaling-stroke" d="
  M 291.30 135.64
  C 296.33 129.06 291.74 122.65 286.49 118.47
  A 0.29 0.29 0.0 0 0 286.07 118.86
  Q 286.60 119.64 288.74 122.23
  Q 293.74 128.28 290.91 135.42
  A 0.23 0.23 0.0 0 0 291.30 135.64"
/>
<path stroke="#f1d0bb" vector-effect="non-scaling-stroke" d="
  M 214.78 92.89
  C 212.23 94.71 208.63 97.37 205.82 94.70
  C 205.00 93.92 204.55 92.51 204.00 91.00
  A 1.47 1.45 -2.5 0 0 202.97 90.07
  L 201.76 89.79"
/>
<path stroke="#c89881" vector-effect="non-scaling-stroke" d="
  M 201.76 89.79
  Q 203.01 89.90 203.61 88.86
  Q 204.87 86.65 205.95 84.11
  A 0.38 0.38 0.0 0 0 205.48 83.60
  L 200.49 85.28
  A 0.90 0.90 0.0 0 0 200.78 87.03
  Q 201.16 87.03 201.38 87.13
  A 0.63 0.62 27.7 0 1 201.67 88.05
  Q 201.24 88.70 201.33 89.50"
/>
<path stroke="#f1d0bb" vector-effect="non-scaling-stroke" d="
  M 201.33 89.50
  Q 197.34 87.71 197.98 83.85
  A 0.61 0.60 -80.8 0 0 197.49 83.16
  L 193.42 82.43
  A 1.30 1.30 0.0 0 1 192.38 80.86
  Q 193.53 76.00 192.79 72.20"
/>
<path stroke="#cfafa0" vector-effect="non-scaling-stroke" d="
  M 201.33 89.50
  Q 201.51 89.57 201.76 89.79"
/>
<path stroke="#cfafa0" vector-effect="non-scaling-stroke" d="
  M 223.17 101.04
  Q 223.72 101.90 223.13 102.61
  Q 220.76 105.47 214.55 112.24
  Q 210.90 116.21 207.00 119.27
  C 200.18 124.60 193.70 128.25 188.50 133.25"
/>
<path stroke="#ebcdb5" vector-effect="non-scaling-stroke" d="
  M 222.80 97.30
  Q 222.74 98.03 222.47 98.60"
/>
<path stroke="#c89881" vector-effect="non-scaling-stroke" d="
  M 239.08 103.30
  Q 237.48 106.38 234.69 108.62
  C 231.79 110.95 229.54 114.41 226.59 116.83
  C 221.91 120.69 218.81 123.92 213.66 127.15
  Q 206.56 131.61 200.21 133.53
  A 1.86 1.86 0.0 0 1 197.82 131.91
  Q 197.48 127.73 200.79 125.27
  Q 207.37 120.36 213.59 115.04
  C 217.37 111.79 220.42 107.38 223.93 103.65
  A 2.95 2.74 81.5 0 0 224.41 102.95
  Q 225.38 100.95 223.72 100.06"
/>
<path stroke="#c89881" vector-effect="non-scaling-stroke" d="
  M 247.80 101.44
  C 243.93 104.07 240.50 105.28 238.25 109.76
  Q 236.44 113.37 233.42 117.58
  A 17.75 17.52 -17.7 0 0 231.15 121.91
  Q 230.02 125.12 228.93 130.05
  Q 226.95 139.03 234.26 143.95
  A 1.09 1.06 -26.2 0 0 234.84 144.14
  Q 235.69 144.18 236.09 144.96
  A 1.08 1.00 -59.6 0 1 236.19 145.41
  L 236.19 190.25
  A 2.55 2.54 -16.2 0 1 235.00 192.40
  Q 226.12 197.95 216.66 204.62
  C 204.94 212.87 193.08 220.34 181.10 224.82
  Q 178.65 225.74 177.23 225.05
  Q 172.04 222.51 167.08 223.58
  Q 163.37 224.39 157.04 227.61"
/>
<path stroke="#c89881" vector-effect="non-scaling-stroke" d="
  M 173.37 163.38
  L 175.92 166.29
  A 3.09 3.08 -20.7 0 0 178.23 167.33
  L 178.77 167.33
  A 1.17 1.17 0.0 0 0 179.77 165.55
  Q 178.40 163.32 176.86 162.16
  A 0.59 0.59 0.0 0 1 176.82 161.24
  L 176.84 161.23
  A 0.53 0.53 0.0 0 1 177.59 161.29
  C 180.13 164.24 181.96 167.20 184.63 167.75
  A 1.19 1.18 -12.9 0 0 185.81 165.87
  Q 184.84 164.60 182.90 163.46
  Q 182.15 163.02 180.80 159.82
  A 0.30 0.29 -86.0 0 1 181.22 159.45
  Q 182.87 160.46 186.92 163.97
  Q 189.74 166.42 190.62 166.53
  Q 193.01 166.82 194.61 164.35
  A 1.71 1.68 -86.6 0 1 195.23 163.79
  Q 197.16 162.79 196.55 160.32"
/>
<path stroke="#8a5e4b" vector-effect="non-scaling-stroke" d="
  M 196.55 160.32
  C 199.05 162.36 202.08 164.66 205.53 164.93
  Q 215.84 165.75 223.97 164.88
  A 0.23 0.23 0.0 0 0 224.18 164.65
  L 224.18 164.64
  A 0.25 0.25 0.0 0 0 223.95 164.40
  Q 218.35 163.92 212.22 163.79
  C 207.50 163.69 199.12 162.68 196.71 158.26
  Q 194.85 154.83 193.00 153.44"
/>
<path stroke="#c89881" vector-effect="non-scaling-stroke" d="
  M 193.00 153.44
  Q 192.26 152.72 192.08 150.09
  A 1.69 1.66 -79.3 0 0 191.15 148.70
  L 186.36 146.35"
/>
<path stroke="#8a5e4b" vector-effect="non-scaling-stroke" d="
  M 219.2070 176.0319
  A 8.18 0.67 -20.6 0 0 211.3143 178.2828
  A 8.18 0.67 -20.6 0 0 203.8930 181.7881
  A 8.18 0.67 -20.6 0 0 211.7857 179.5372
  A 8.18 0.67 -20.6 0 0 219.2070 176.0319"
/>
<path stroke="#f1d0bb" vector-effect="non-scaling-stroke" d="
  M 262.26 178.98
  Q 261.69 179.11 261.67 179.25
  Q 259.77 191.60 257.38 203.91
  A 3.35 3.28 -20.4 0 1 256.70 205.35
  Q 253.67 209.05 248.53 211.15"
/>
<path stroke="#c89881" vector-effect="non-scaling-stroke" d="
  M 248.53 211.15
  Q 243.26 213.91 238.06 216.64
  C 230.90 220.41 224.02 223.25 217.29 225.78
  Q 204.58 230.54 188.25 236.31
  A 4.63 4.57 18.8 0 0 187.34 236.75
  Q 183.85 238.97 180.38 241.89
  Q 178.34 243.60 173.47 243.75"
/>
<path stroke="#c89881" vector-effect="non-scaling-stroke" d="
  M 285.56 142.58
  Q 285.19 142.83 284.96 142.58"
/>
<path stroke="#d2af97" vector-effect="non-scaling-stroke" d="
  M 122.52 249.29
  Q 121.36 243.42 121.36 237.47
  Q 121.39 215.96 120.93 194.45"
/>
<path stroke="#8a5e4b" vector-effect="non-scaling-stroke" d="
  M 283.05 153.33
  Q 282.03 154.59 283.57 157.53"
/>
<path stroke="#c89881" vector-effect="non-scaling-stroke" d="
  M 281.50 160.71
  L 281.38 159.59
  A 0.23 0.23 0.0 0 0 280.95 159.51
  L 280.31 160.82"
/>
<path stroke="#ac7f67" vector-effect="non-scaling-stroke" d="
  M 193.00 153.44
  Q 194.06 157.31 196.55 160.32"
/>
<path stroke="#cfafa0" vector-effect="non-scaling-stroke" d="
  M 260.51 250.00
  Q 261.65 241.44 258.48 233.49
  C 257.31 230.56 256.18 227.17 255.08 225.43
  Q 251.26 219.36 248.53 211.15"
/>
</g>
<path fill="#f7f2f0" d="
  M 444.00 0.00
  L 444.00 250.00
  L 349.26 250.00
  L 345.75 249.50
  C 354.79 242.84 360.69 235.64 363.02 224.45
  Q 365.04 214.73 365.48 204.48
  Q 367.28 162.48 367.77 142.81
  Q 369.05 92.33 367.62 40.77
  Q 367.12 22.87 361.12 6.44
  A 0.79 0.79 0.0 0 0 360.43 5.93
  L 340.71 4.80
  L 338.00 4.82
  L 332.71 4.71
  L 325.64 4.73
  A 0.52 0.52 0.0 0 0 325.12 5.25
  L 325.07 250.00
  L 313.25 250.00
  Q 313.52 247.46 312.92 246.21
  L 313.32 5.64
  A 1.30 1.29 89.1 0 0 311.99 4.34
  Q 293.09 4.91 274.75 4.90
  Q 202.75 4.85 130.80 4.72
  Q 123.79 5.31 116.26 4.40
  L 110.84 4.67
  A 0.98 0.97 88.8 0 0 109.91 5.65
  L 109.91 250.00
  L 0.00 250.00
  L 0.00 0.00
  L 444.00 0.00
  Z"
/>
<path fill="#eaecea" d="
  M 130.80 4.72
  Q 130.52 11.12 130.54 16.54
  Q 130.63 54.88 130.65 91.25
  Q 130.66 96.77 130.62 102.25
  Q 130.37 137.90 130.81 173.00
  Q 131.05 191.52 130.93 211.50
  Q 130.82 230.75 130.97 250.00
  L 119.98 250.00
  L 122.52 249.29
  C 123.41 236.18 122.54 219.07 122.64 210.19
  Q 122.85 192.07 122.74 188.54
  C 122.60 183.55 121.99 177.14 122.07 171.48
  Q 122.35 152.38 121.72 133.28
  L 121.79 126.80
  C 121.93 109.94 122.30 93.08 122.27 76.24
  Q 122.24 54.64 122.38 40.92
  C 122.48 31.72 123.35 20.15 123.37 12.06
  Q 123.37 9.05 121.97 5.11
  L 117.57 4.70
  Q 116.91 4.79 116.26 4.40
  Q 123.79 5.31 130.80 4.72
  Z"
/>
<path fill="#f8daca" d="
  M 312.92 246.21
  Q 309.94 240.75 307.12 235.41
  Q 303.42 228.40 300.82 224.91
  C 294.54 216.50 287.08 210.68 278.80 202.96
  Q 270.89 195.59 268.42 185.81
  Q 270.78 186.12 272.70 185.63
  A 0.29 0.29 0.0 0 0 272.75 185.08
  C 268.39 183.22 263.94 172.86 265.88 168.14
  Q 265.58 170.35 265.72 171.72
  Q 266.09 175.33 271.23 182.22
  A 0.19 0.18 56.3 0 0 271.47 182.27
  L 271.70 182.14
  A 0.26 0.26 0.0 0 0 271.78 181.76
  Q 266.96 175.25 270.41 167.30
  A 0.47 0.47 0.0 0 1 271.30 167.58
  Q 270.16 172.85 271.82 178.89
  Q 271.87 179.08 273.18 180.76
  A 0.21 0.21 0.0 0 0 273.56 180.63
  L 273.56 175.09
  A 2.89 2.88 69.5 0 1 274.54 172.92
  C 278.96 169.05 284.24 165.77 283.02 158.78
  Q 282.93 157.04 283.57 157.53
  C 286.27 162.86 287.22 168.56 282.54 173.12
  Q 278.72 176.84 275.85 178.78
  A 0.37 0.37 0.0 0 0 275.90 179.43
  Q 276.20 179.56 276.64 179.35
  C 282.77 176.48 288.20 171.16 287.34 163.99
  C 286.99 161.12 284.42 156.72 283.05 153.33
  Q 282.93 149.93 284.03 146.86
  C 287.90 142.44 292.46 138.32 293.98 132.77
  Q 295.91 125.72 290.67 120.67
  Q 289.61 119.66 283.13 113.91
  C 278.81 110.08 278.45 105.84 279.27 99.82
  C 281.35 84.57 281.81 74.33 267.75 65.73
  C 261.08 61.65 253.86 57.78 251.14 50.47
  Q 249.56 46.24 249.05 45.49
  C 245.63 40.42 241.68 35.91 237.32 31.80
  Q 234.55 29.19 228.26 25.46
  Q 222.81 22.23 217.85 22.05
  Q 211.83 21.84 207.36 23.04
  A 7.36 7.24 22.0 0 0 205.60 23.77
  C 201.78 25.96 199.42 28.57 196.04 30.18
  A 3.89 3.71 -77.3 0 0 195.26 30.70
  Q 187.91 37.12 182.65 44.79
  A 1.79 1.64 -24.1 0 0 182.39 45.39
  L 180.25 54.43
  C 176.27 57.83 173.70 63.72 172.09 68.59
  C 167.10 83.68 166.59 101.99 175.19 116.05
  C 178.64 121.68 183.05 128.79 188.50 133.25
  Q 184.16 138.55 186.36 146.35
  Q 186.58 147.08 185.50 147.19
  Q 177.01 148.06 173.51 155.54
  Q 172.26 158.20 173.37 163.38
  C 166.23 167.11 160.46 173.52 156.00 179.74
  Q 148.51 190.19 148.42 202.55
  C 148.36 211.45 152.00 220.16 157.04 227.61
  Q 158.19 229.48 158.78 231.70
  C 159.59 234.76 160.33 236.55 162.26 238.33
  Q 163.90 239.84 168.25 241.69
  Q 170.98 242.85 173.47 243.75
  L 173.76 250.00
  L 130.97 250.00
  Q 130.82 230.75 130.93 211.50
  Q 131.05 191.52 130.81 173.00
  Q 130.37 137.90 130.62 102.25
  Q 130.66 96.77 130.65 91.25
  Q 130.63 54.88 130.54 16.54
  Q 130.52 11.12 130.80 4.72
  Q 202.75 4.85 274.75 4.90
  Q 293.09 4.91 311.99 4.34
  A 1.30 1.29 89.1 0 1 313.32 5.64
  L 312.92 246.21
  Z"
/>
<path fill="#ece0cd" d="
  M 116.26 4.40
  Q 116.91 4.79 117.57 4.70
  Q 118.64 106.99 118.35 142.00
  Q 117.95 190.85 117.81 240.13
  L 117.53 250.00
  L 109.91 250.00
  L 109.91 5.65
  A 0.98 0.97 88.8 0 1 110.84 4.67
  L 116.26 4.40
  Z"
/>
<path fill="#ece0cd" d="
  M 332.71 4.71
  L 332.72 19.71
  L 332.76 250.00
  L 325.07 250.00
  L 325.12 5.25
  A 0.52 0.52 0.0 0 1 325.64 4.73
  L 332.71 4.71
  Z"
/>
<path fill="#9a8371" d="
  M 121.97 5.11
  Q 121.41 10.13 121.41 11.55
  Q 121.32 47.03 121.62 82.50
  Q 121.76 99.50 121.51 116.50
  Q 121.44 121.66 121.79 126.80
  L 121.72 133.28
  L 120.93 194.45
  Q 120.66 206.59 120.81 218.74
  Q 120.91 225.93 117.81 240.13
  Q 117.95 190.85 118.35 142.00
  Q 118.64 106.99 117.57 4.70
  L 121.97 5.11
  Z"
/>
<path fill="#9a8371" d="
  M 338.00 4.82
  Q 338.90 14.82 338.89 22.04
  Q 338.82 55.39 338.89 88.73
  C 338.99 139.70 338.73 196.20 339.25 250.00
  L 333.83 250.00
  L 333.92 14.21
  A 0.37 0.36 -0.0 0 0 333.55 13.85
  L 333.25 13.85
  A 0.26 0.25 1.1 0 0 332.99 14.09
  L 332.72 19.71
  L 332.71 4.71
  L 338.00 4.82
  Z"
/>
<path fill="#baa492" d="
  M 340.71 4.80
  Q 343.68 4.89 345.27 6.77
  C 345.37 14.52 344.79 23.05 344.81 29.98
  Q 344.89 79.08 344.65 128.00
  C 344.48 163.26 344.70 198.52 344.64 233.67
  C 344.63 237.01 344.97 240.38 345.28 243.71
  L 343.55 249.09
  A 0.22 0.21 -10.8 0 0 343.89 249.32
  Q 344.84 248.56 345.38 247.41
  Q 345.13 248.59 344.22 249.17
  A 0.30 0.30 0.0 0 0 344.45 249.72
  L 345.22 249.53
  L 345.75 249.50
  L 349.26 250.00
  L 339.25 250.00
  C 338.73 196.20 338.99 139.70 338.89 88.73
  Q 338.82 55.39 338.89 22.04
  Q 338.90 14.82 338.00 4.82
  L 340.71 4.80
  Z"
/>
<path fill="#eaecea" d="
  M 345.75 249.50
  L 345.22 249.53
  C 352.53 235.19 352.94 221.15 353.04 205.11
  Q 353.56 118.95 353.25 50.78
  C 353.18 34.69 352.93 21.36 345.98 7.33
  Q 345.74 6.87 345.27 6.77
  Q 343.68 4.89 340.71 4.80
  L 360.43 5.93
  A 0.79 0.79 0.0 0 1 361.12 6.44
  Q 367.12 22.87 367.62 40.77
  Q 369.05 92.33 367.77 142.81
  Q 367.28 162.48 365.48 204.48
  Q 365.04 214.73 363.02 224.45
  C 360.69 235.64 354.79 242.84 345.75 249.50
  Z"
/>
<path fill="#baa492" d="
  M 121.79 126.80
  Q 121.44 121.66 121.51 116.50
  Q 121.76 99.50 121.62 82.50
  Q 121.32 47.03 121.41 11.55
  Q 121.41 10.13 121.97 5.11
  Q 123.37 9.05 123.37 12.06
  C 123.35 20.15 122.48 31.72 122.38 40.92
  Q 122.24 54.64 122.27 76.24
  C 122.30 93.08 121.93 109.94 121.79 126.80
  Z"
/>
<path fill="#eab99c" d="
  M 345.98 7.33
  L 345.28 243.71
  C 344.97 240.38 344.63 237.01 344.64 233.67
  C 344.70 198.52 344.48 163.26 344.65 128.00
  Q 344.89 79.08 344.81 29.98
  C 344.79 23.05 345.37 14.52 345.27 6.77
  Q 345.74 6.87 345.98 7.33
  Z"
/>
<path fill="#ece0cd" d="
  M 345.22 249.53
  L 344.45 249.72
  A 0.30 0.30 0.0 0 1 344.22 249.17
  Q 345.13 248.59 345.38 247.41
  Q 344.84 248.56 343.89 249.32
  A 0.22 0.21 -10.8 0 1 343.55 249.09
  L 345.28 243.71
  L 345.98 7.33
  C 352.93 21.36 353.18 34.69 353.25 50.78
  Q 353.56 118.95 353.04 205.11
  C 352.94 221.15 352.53 235.19 345.22 249.53
  Z"
/>
<path fill="#a67665" d="
  M 333.83 250.00
  L 332.76 250.00
  L 332.72 19.71
  L 332.99 14.09
  A 0.26 0.25 1.1 0 1 333.25 13.85
  L 333.55 13.85
  A 0.37 0.36 -0.0 0 1 333.92 14.21
  L 333.83 250.00
  Z"
/>
<path fill="#6e4531" d="
  M 284.03 146.86
  Q 283.13 145.61 285.56 142.58
  C 292.10 136.30 292.07 126.57 285.82 120.37
  Q 285.67 120.23 285.48 120.27
  A 0.17 0.17 0.0 0 0 285.37 120.53
  Q 293.28 131.62 284.96 142.58
  Q 281.14 146.34 281.04 149.32
  Q 280.83 155.04 280.31 160.82
  Q 279.49 164.54 277.45 167.72
  A 0.28 0.27 -55.0 0 0 277.51 168.08
  L 277.52 168.09
  A 0.26 0.26 0.0 0 0 277.88 168.05
  Q 280.72 164.92 281.50 160.71
  L 283.02 158.78
  C 284.24 165.77 278.96 169.05 274.54 172.92
  A 2.89 2.88 69.5 0 0 273.56 175.09
  L 273.56 180.63
  A 0.21 0.21 0.0 0 1 273.18 180.76
  Q 271.87 179.08 271.82 178.89
  Q 270.16 172.85 271.30 167.58
  A 0.47 0.47 0.0 0 0 270.41 167.30
  Q 266.96 175.25 271.78 181.76
  A 0.26 0.26 0.0 0 1 271.70 182.14
  L 271.47 182.27
  A 0.19 0.18 56.3 0 1 271.23 182.22
  Q 266.09 175.33 265.72 171.72
  Q 265.58 170.35 265.88 168.14
  C 263.94 172.86 268.39 183.22 272.75 185.08
  A 0.29 0.29 0.0 0 1 272.70 185.63
  Q 270.78 186.12 268.42 185.81
  L 262.26 178.98
  Q 261.73 177.07 261.81 175.99
  Q 263.09 159.16 265.15 142.89
  C 266.03 135.96 266.34 129.50 265.79 123.26
  C 264.92 113.53 260.79 99.16 247.80 101.44
  L 239.08 103.30
  Q 228.87 104.09 222.80 97.30
  L 217.78 89.13
  A 0.34 0.34 0.0 0 0 217.15 89.34
  L 217.61 93.25
  A 3.63 3.63 0.0 0 0 218.86 95.58
  L 222.47 98.60
  L 223.72 100.06
  Q 223.99 100.98 223.17 101.04
  Q 217.95 98.49 214.78 92.89
  Q 211.51 87.09 213.43 80.09
  C 214.56 76.02 216.51 69.05 211.09 67.73
  Q 206.01 66.48 203.05 66.72
  A 1.54 1.50 -68.8 0 0 202.10 67.15
  Q 200.10 69.16 198.45 70.10
  A 0.66 0.66 0.0 0 1 197.63 69.08
  Q 199.11 67.43 201.91 66.56
  A 0.36 0.36 0.0 0 0 201.98 65.91
  L 197.06 63.08
  A 1.64 1.62 45.4 0 0 195.46 63.06
  L 192.57 64.67
  A 0.63 0.62 69.9 0 1 191.66 64.24
  L 191.62 63.94
  A 0.69 0.68 71.0 0 1 191.95 63.26
  L 194.94 61.54
  A 0.60 0.59 54.5 0 0 195.09 60.63
  Q 190.60 55.58 186.86 48.74
  A 0.42 0.41 35.9 0 0 186.09 48.86
  Q 183.91 60.25 191.20 67.93
  A 2.16 2.15 -67.6 0 1 191.79 69.36
  Q 191.83 70.69 192.79 72.20
  C 184.27 69.50 180.73 62.84 180.25 54.43
  L 182.39 45.39
  A 1.79 1.64 -24.1 0 1 182.65 44.79
  Q 187.91 37.12 195.26 30.70
  A 3.89 3.71 -77.3 0 1 196.04 30.18
  C 199.42 28.57 201.78 25.96 205.60 23.77
  A 7.36 7.24 22.0 0 1 207.36 23.04
  Q 211.83 21.84 217.85 22.05
  Q 222.81 22.23 228.26 25.46
  Q 234.55 29.19 237.32 31.80
  C 241.68 35.91 245.63 40.42 249.05 45.49
  Q 249.56 46.24 251.14 50.47
  C 253.86 57.78 261.08 61.65 267.75 65.73
  C 281.81 74.33 281.35 84.57 279.27 99.82
  C 278.45 105.84 278.81 110.08 283.13 113.91
  Q 289.61 119.66 290.67 120.67
  Q 295.91 125.72 293.98 132.77
  C 292.46 138.32 287.90 142.44 284.03 146.86
  Z
  M 237.55 87.90
  A 0.31 0.31 0.0 0 0 237.66 87.47
  Q 235.48 84.09 235.45 82.33
  Q 235.33 76.24 235.28 70.94
  C 235.22 63.56 228.31 56.73 221.43 55.05
  Q 219.91 54.68 213.53 53.69
  Q 207.30 52.73 202.55 47.52
  A 0.08 0.07 48.6 0 0 202.47 47.51
  L 202.25 47.64
  A 0.34 0.33 57.4 0 0 202.15 48.12
  C 206.45 54.24 212.38 54.63 220.27 56.24
  Q 231.93 58.60 233.98 69.21
  C 234.63 72.55 234.11 78.11 234.20 81.22
  Q 234.29 84.34 237.03 88.00
  A 0.20 0.20 0.0 0 0 237.29 88.05
  L 237.55 87.90
  Z
  M 257.42 60.80
  Q 260.04 64.16 262.12 65.65
  Q 266.59 68.87 268.98 70.43
  C 273.76 73.54 277.69 78.29 278.49 83.60
  A 0.20 0.20 0.0 0 0 278.88 83.64
  Q 279.17 82.85 278.88 81.59
  Q 276.82 72.68 268.93 67.89
  Q 261.52 63.40 257.54 60.67
  A 0.09 0.09 0.0 0 0 257.42 60.80
  Z
  M 291.30 135.64
  C 296.33 129.06 291.74 122.65 286.49 118.47
  A 0.29 0.29 0.0 0 0 286.07 118.86
  Q 286.60 119.64 288.74 122.23
  Q 293.74 128.28 290.91 135.42
  A 0.23 0.23 0.0 0 0 291.30 135.64
  Z"
/>
<path fill="#a67665" d="
  M 237.03 88.00
  Q 234.29 84.34 234.20 81.22
  C 234.11 78.11 234.63 72.55 233.98 69.21
  Q 231.93 58.60 220.27 56.24
  C 212.38 54.63 206.45 54.24 202.15 48.12
  A 0.34 0.33 57.4 0 1 202.25 47.64
  L 202.47 47.51
  A 0.08 0.07 48.6 0 1 202.55 47.52
  Q 207.30 52.73 213.53 53.69
  Q 219.91 54.68 221.43 55.05
  C 228.31 56.73 235.22 63.56 235.28 70.94
  Q 235.33 76.24 235.45 82.33
  Q 235.48 84.09 237.66 87.47
  A 0.31 0.31 0.0 0 1 237.55 87.90
  L 237.29 88.05
  A 0.20 0.20 0.0 0 1 237.03 88.00
  Z"
/>
<path fill="#eab99c" d="
  M 214.78 92.89
  C 212.23 94.71 208.63 97.37 205.82 94.70
  C 205.00 93.92 204.55 92.51 204.00 91.00
  A 1.47 1.45 -2.5 0 0 202.97 90.07
  L 201.76 89.79
  Q 203.01 89.90 203.61 88.86
  Q 204.87 86.65 205.95 84.11
  A 0.38 0.38 0.0 0 0 205.48 83.60
  L 200.49 85.28
  A 0.90 0.90 0.0 0 0 200.78 87.03
  Q 201.16 87.03 201.38 87.13
  A 0.63 0.62 27.7 0 1 201.67 88.05
  Q 201.24 88.70 201.33 89.50
  Q 197.34 87.71 197.98 83.85
  A 0.61 0.60 -80.8 0 0 197.49 83.16
  L 193.42 82.43
  A 1.30 1.30 0.0 0 1 192.38 80.86
  Q 193.53 76.00 192.79 72.20
  Q 191.83 70.69 191.79 69.36
  A 2.16 2.15 -67.6 0 0 191.20 67.93
  Q 183.91 60.25 186.09 48.86
  A 0.42 0.41 35.9 0 1 186.86 48.74
  Q 190.60 55.58 195.09 60.63
  A 0.60 0.59 54.5 0 1 194.94 61.54
  L 191.95 63.26
  A 0.69 0.68 71.0 0 0 191.62 63.94
  L 191.66 64.24
  A 0.63 0.62 69.9 0 0 192.57 64.67
  L 195.46 63.06
  A 1.64 1.62 45.4 0 1 197.06 63.08
  L 201.98 65.91
  A 0.36 0.36 0.0 0 1 201.91 66.56
  Q 199.11 67.43 197.63 69.08
  A 0.66 0.66 0.0 0 0 198.45 70.10
  Q 200.10 69.16 202.10 67.15
  A 1.54 1.50 -68.8 0 1 203.05 66.72
  Q 206.01 66.48 211.09 67.73
  C 216.51 69.05 214.56 76.02 213.43 80.09
  Q 211.51 87.09 214.78 92.89
  Z"
/>
<path fill="#f7e7da" d="
  M 180.25 54.43
  C 180.73 62.84 184.27 69.50 192.79 72.20
  Q 193.53 76.00 192.38 80.86
  A 1.30 1.30 0.0 0 0 193.42 82.43
  L 197.49 83.16
  A 0.61 0.60 -80.8 0 1 197.98 83.85
  Q 197.34 87.71 201.33 89.50
  Q 201.51 89.57 201.76 89.79
  L 202.97 90.07
  A 1.47 1.45 -2.5 0 1 204.00 91.00
  C 204.55 92.51 205.00 93.92 205.82 94.70
  C 208.63 97.37 212.23 94.71 214.78 92.89
  Q 217.95 98.49 223.17 101.04
  Q 223.72 101.90 223.13 102.61
  Q 220.76 105.47 214.55 112.24
  Q 210.90 116.21 207.00 119.27
  C 200.18 124.60 193.70 128.25 188.50 133.25
  C 183.05 128.79 178.64 121.68 175.19 116.05
  C 166.59 101.99 167.10 83.68 172.09 68.59
  C 173.70 63.72 176.27 57.83 180.25 54.43
  Z"
/>
<path fill="#f8daca" d="
  M 257.54 60.67
  Q 261.52 63.40 268.93 67.89
  Q 276.82 72.68 278.88 81.59
  Q 279.17 82.85 278.88 83.64
  A 0.20 0.20 0.0 0 1 278.49 83.60
  C 277.69 78.29 273.76 73.54 268.98 70.43
  Q 266.59 68.87 262.12 65.65
  Q 260.04 64.16 257.42 60.80
  A 0.09 0.09 0.0 0 1 257.54 60.67
  Z"
/>
<path fill="#a67665" d="
  M 201.76 89.79
  Q 201.51 89.57 201.33 89.50
  Q 201.24 88.70 201.67 88.05
  A 0.63 0.62 27.7 0 0 201.38 87.13
  Q 201.16 87.03 200.78 87.03
  A 0.90 0.90 0.0 0 1 200.49 85.28
  L 205.48 83.60
  A 0.38 0.38 0.0 0 1 205.95 84.11
  Q 204.87 86.65 203.61 88.86
  Q 203.01 89.90 201.76 89.79
  Z"
/>
<path fill="#ece0cd" d="
  M 222.80 97.30
  Q 222.74 98.03 222.47 98.60
  L 218.86 95.58
  A 3.63 3.63 0.0 0 1 217.61 93.25
  L 217.15 89.34
  A 0.34 0.34 0.0 0 1 217.78 89.13
  L 222.80 97.30
  Z"
/>
<path fill="#eab99c" d="
  M 239.08 103.30
  Q 237.48 106.38 234.69 108.62
  C 231.79 110.95 229.54 114.41 226.59 116.83
  C 221.91 120.69 218.81 123.92 213.66 127.15
  Q 206.56 131.61 200.21 133.53
  A 1.86 1.86 0.0 0 1 197.82 131.91
  Q 197.48 127.73 200.79 125.27
  Q 207.37 120.36 213.59 115.04
  C 217.37 111.79 220.42 107.38 223.93 103.65
  A 2.95 2.74 81.5 0 0 224.41 102.95
  Q 225.38 100.95 223.72 100.06
  L 222.47 98.60
  Q 222.74 98.03 222.80 97.30
  Q 228.87 104.09 239.08 103.30
  Z"
/>
<path fill="#a67665" d="
  M 239.08 103.30
  L 247.80 101.44
  C 243.93 104.07 240.50 105.28 238.25 109.76
  Q 236.44 113.37 233.42 117.58
  A 17.75 17.52 -17.7 0 0 231.15 121.91
  Q 230.02 125.12 228.93 130.05
  Q 226.95 139.03 234.26 143.95
  A 1.09 1.06 -26.2 0 0 234.84 144.14
  Q 235.69 144.18 236.09 144.96
  A 1.08 1.00 -59.6 0 1 236.19 145.41
  L 236.19 190.25
  A 2.55 2.54 -16.2 0 1 235.00 192.40
  Q 226.12 197.95 216.66 204.62
  C 204.94 212.87 193.08 220.34 181.10 224.82
  Q 178.65 225.74 177.23 225.05
  Q 172.04 222.51 167.08 223.58
  Q 163.37 224.39 157.04 227.61
  C 152.00 220.16 148.36 211.45 148.42 202.55
  Q 148.51 190.19 156.00 179.74
  C 160.46 173.52 166.23 167.11 173.37 163.38
  L 175.92 166.29
  A 3.09 3.08 -20.7 0 0 178.23 167.33
  L 178.77 167.33
  A 1.17 1.17 0.0 0 0 179.77 165.55
  Q 178.40 163.32 176.86 162.16
  A 0.59 0.59 0.0 0 1 176.82 161.24
  L 176.84 161.23
  A 0.53 0.53 0.0 0 1 177.59 161.29
  C 180.13 164.24 181.96 167.20 184.63 167.75
  A 1.19 1.18 -12.9 0 0 185.81 165.87
  Q 184.84 164.60 182.90 163.46
  Q 182.15 163.02 180.80 159.82
  A 0.30 0.29 -86.0 0 1 181.22 159.45
  Q 182.87 160.46 186.92 163.97
  Q 189.74 166.42 190.62 166.53
  Q 193.01 166.82 194.61 164.35
  A 1.71 1.68 -86.6 0 1 195.23 163.79
  Q 197.16 162.79 196.55 160.32
  C 199.05 162.36 202.08 164.66 205.53 164.93
  Q 215.84 165.75 223.97 164.88
  A 0.23 0.23 0.0 0 0 224.18 164.65
  L 224.18 164.64
  A 0.25 0.25 0.0 0 0 223.95 164.40
  Q 218.35 163.92 212.22 163.79
  C 207.50 163.69 199.12 162.68 196.71 158.26
  Q 194.85 154.83 193.00 153.44
  Q 192.26 152.72 192.08 150.09
  A 1.69 1.66 -79.3 0 0 191.15 148.70
  L 186.36 146.35
  Q 184.16 138.55 188.50 133.25
  C 193.70 128.25 200.18 124.60 207.00 119.27
  Q 210.90 116.21 214.55 112.24
  Q 220.76 105.47 223.13 102.61
  Q 223.72 101.90 223.17 101.04
  Q 223.99 100.98 223.72 100.06
  Q 225.38 100.95 224.41 102.95
  A 2.95 2.74 81.5 0 1 223.93 103.65
  C 220.42 107.38 217.37 111.79 213.59 115.04
  Q 207.37 120.36 200.79 125.27
  Q 197.48 127.73 197.82 131.91
  A 1.86 1.86 0.0 0 0 200.21 133.53
  Q 206.56 131.61 213.66 127.15
  C 218.81 123.92 221.91 120.69 226.59 116.83
  C 229.54 114.41 231.79 110.95 234.69 108.62
  Q 237.48 106.38 239.08 103.30
  Z
  M 219.2070 176.0319
  A 8.18 0.67 -20.6 0 0 211.3143 178.2828
  A 8.18 0.67 -20.6 0 0 203.8930 181.7881
  A 8.18 0.67 -20.6 0 0 211.7857 179.5372
  A 8.18 0.67 -20.6 0 0 219.2070 176.0319
  Z"
/>
<path fill="#eab99c" d="
  M 262.26 178.98
  Q 261.69 179.11 261.67 179.25
  Q 259.77 191.60 257.38 203.91
  A 3.35 3.28 -20.4 0 1 256.70 205.35
  Q 253.67 209.05 248.53 211.15
  Q 243.26 213.91 238.06 216.64
  C 230.90 220.41 224.02 223.25 217.29 225.78
  Q 204.58 230.54 188.25 236.31
  A 4.63 4.57 18.8 0 0 187.34 236.75
  Q 183.85 238.97 180.38 241.89
  Q 178.34 243.60 173.47 243.75
  Q 170.98 242.85 168.25 241.69
  Q 163.90 239.84 162.26 238.33
  C 160.33 236.55 159.59 234.76 158.78 231.70
  Q 158.19 229.48 157.04 227.61
  Q 163.37 224.39 167.08 223.58
  Q 172.04 222.51 177.23 225.05
  Q 178.65 225.74 181.10 224.82
  C 193.08 220.34 204.94 212.87 216.66 204.62
  Q 226.12 197.95 235.00 192.40
  A 2.55 2.54 -16.2 0 0 236.19 190.25
  L 236.19 145.41
  A 1.08 1.00 -59.6 0 0 236.09 144.96
  Q 235.69 144.18 234.84 144.14
  A 1.09 1.06 -26.2 0 1 234.26 143.95
  Q 226.95 139.03 228.93 130.05
  Q 230.02 125.12 231.15 121.91
  A 17.75 17.52 -17.7 0 1 233.42 117.58
  Q 236.44 113.37 238.25 109.76
  C 240.50 105.28 243.93 104.07 247.80 101.44
  C 260.79 99.16 264.92 113.53 265.79 123.26
  C 266.34 129.50 266.03 135.96 265.15 142.89
  Q 263.09 159.16 261.81 175.99
  Q 261.73 177.07 262.26 178.98
  Z"
/>
<path fill="#f8daca" d="
  M 291.30 135.64
  A 0.23 0.23 0.0 0 1 290.91 135.42
  Q 293.74 128.28 288.74 122.23
  Q 286.60 119.64 286.07 118.86
  A 0.29 0.29 0.0 0 1 286.49 118.47
  C 291.74 122.65 296.33 129.06 291.30 135.64
  Z"
/>
<path fill="#eab99c" d="
  M 285.56 142.58
  Q 285.19 142.83 284.96 142.58
  Q 293.28 131.62 285.37 120.53
  A 0.17 0.17 0.0 0 1 285.48 120.27
  Q 285.67 120.23 285.82 120.37
  C 292.07 126.57 292.10 136.30 285.56 142.58
  Z"
/>
<path fill="#eab99c" d="
  M 121.72 133.28
  Q 122.35 152.38 122.07 171.48
  C 121.99 177.14 122.60 183.55 122.74 188.54
  Q 122.85 192.07 122.64 210.19
  C 122.54 219.07 123.41 236.18 122.52 249.29
  Q 121.36 243.42 121.36 237.47
  Q 121.39 215.96 120.93 194.45
  L 121.72 133.28
  Z"
/>
<path fill="#a67665" d="
  M 284.96 142.58
  Q 285.19 142.83 285.56 142.58
  Q 283.13 145.61 284.03 146.86
  Q 282.93 149.93 283.05 153.33
  Q 282.03 154.59 283.57 157.53
  Q 282.93 157.04 283.02 158.78
  L 281.50 160.71
  L 281.38 159.59
  A 0.23 0.23 0.0 0 0 280.95 159.51
  L 280.31 160.82
  Q 280.83 155.04 281.04 149.32
  Q 281.14 146.34 284.96 142.58
  Z"
/>
<path fill="#eab99c" d="
  M 193.00 153.44
  Q 194.06 157.31 196.55 160.32
  Q 197.16 162.79 195.23 163.79
  A 1.71 1.68 -86.6 0 0 194.61 164.35
  Q 193.01 166.82 190.62 166.53
  Q 189.74 166.42 186.92 163.97
  Q 182.87 160.46 181.22 159.45
  A 0.30 0.29 -86.0 0 0 180.80 159.82
  Q 182.15 163.02 182.90 163.46
  Q 184.84 164.60 185.81 165.87
  A 1.19 1.18 -12.9 0 1 184.63 167.75
  C 181.96 167.20 180.13 164.24 177.59 161.29
  A 0.53 0.53 0.0 0 0 176.84 161.23
  L 176.82 161.24
  A 0.59 0.59 0.0 0 0 176.86 162.16
  Q 178.40 163.32 179.77 165.55
  A 1.17 1.17 0.0 0 1 178.77 167.33
  L 178.23 167.33
  A 3.09 3.08 -20.7 0 1 175.92 166.29
  L 173.37 163.38
  Q 172.26 158.20 173.51 155.54
  Q 177.01 148.06 185.50 147.19
  Q 186.58 147.08 186.36 146.35
  L 191.15 148.70
  A 1.69 1.66 -79.3 0 1 192.08 150.09
  Q 192.26 152.72 193.00 153.44
  Z"
/>
<path fill="#6e4531" d="
  M 196.55 160.32
  Q 194.06 157.31 193.00 153.44
  Q 194.85 154.83 196.71 158.26
  C 199.12 162.68 207.50 163.69 212.22 163.79
  Q 218.35 163.92 223.95 164.40
  A 0.25 0.25 0.0 0 1 224.18 164.64
  L 224.18 164.65
  A 0.23 0.23 0.0 0 1 223.97 164.88
  Q 215.84 165.75 205.53 164.93
  C 202.08 164.66 199.05 162.36 196.55 160.32
  Z"
/>
<path fill="#6e4531" d="
  M 283.05 153.33
  C 284.42 156.72 286.99 161.12 287.34 163.99
  C 288.20 171.16 282.77 176.48 276.64 179.35
  Q 276.20 179.56 275.90 179.43
  A 0.37 0.37 0.0 0 1 275.85 178.78
  Q 278.72 176.84 282.54 173.12
  C 287.22 168.56 286.27 162.86 283.57 157.53
  Q 282.03 154.59 283.05 153.33
  Z"
/>
<path fill="#eab99c" d="
  M 281.50 160.71
  Q 280.72 164.92 277.88 168.05
  A 0.26 0.26 0.0 0 1 277.52 168.09
  L 277.51 168.08
  A 0.28 0.27 -55.0 0 1 277.45 167.72
  Q 279.49 164.54 280.31 160.82
  L 280.95 159.51
  A 0.23 0.23 0.0 0 1 281.38 159.59
  L 281.50 160.71
  Z"
/>
<ellipse fill="#6e4531" cx="0.00" cy="0.00" transform="translate(211.55,178.91) rotate(-20.6)" rx="8.18" ry="0.67"/>
<path fill="#f7e7da" d="
  M 262.26 178.98
  L 268.42 185.81
  Q 270.89 195.59 278.80 202.96
  C 287.08 210.68 294.54 216.50 300.82 224.91
  Q 303.42 228.40 307.12 235.41
  Q 309.94 240.75 312.92 246.21
  Q 313.52 247.46 313.25 250.00
  L 260.51 250.00
  Q 261.65 241.44 258.48 233.49
  C 257.31 230.56 256.18 227.17 255.08 225.43
  Q 251.26 219.36 248.53 211.15
  Q 253.67 209.05 256.70 205.35
  A 3.35 3.28 -20.4 0 0 257.38 203.91
  Q 259.77 191.60 261.67 179.25
  Q 261.69 179.11 262.26 178.98
  Z"
/>
<path fill="#baa492" d="
  M 120.93 194.45
  Q 121.39 215.96 121.36 237.47
  Q 121.36 243.42 122.52 249.29
  L 119.98 250.00
  L 117.53 250.00
  L 117.81 240.13
  Q 120.91 225.93 120.81 218.74
  Q 120.66 206.59 120.93 194.45
  Z"
/>
<path fill="#a67665" d="
  M 248.53 211.15
  Q 251.26 219.36 255.08 225.43
  C 256.18 227.17 257.31 230.56 258.48 233.49
  Q 261.65 241.44 260.51 250.00
  L 173.76 250.00
  L 173.47 243.75
  Q 178.34 243.60 180.38 241.89
  Q 183.85 238.97 187.34 236.75
  A 4.63 4.57 18.8 0 1 188.25 236.31
  Q 204.58 230.54 217.29 225.78
  C 224.02 223.25 230.90 220.41 238.06 216.64
  Q 243.26 213.91 248.53 211.15
  Z"
/>
</svg>
